<svg xmlns="http://www.w3.org/2000/svg" viewBox="0 0 839.22 100.09"><defs><style>.cls-1{fill:#fff;}</style></defs><title>Mountains</title><g id="Layer_2" data-name="Layer 2"><path d="M164.85,328.65c6.36-2.78,22.73-12.18,32.37-17.55,11.52-6.42,24-9.68,35.91-14.19,10.86-4.1,23.57-4.46,34.06.85,5.3,2.69,8.74,6,13.89,7.89,8.19,3.05,11.31,4,18.32,9.72-1-13.67-21.53-9.3-20.34-19.33,15.37-7.87,21.39,3.9,33.54,8.58,2.8,1.08,6.72-.91,9.62.17,2.5.92,4.14,4.3,6.75,5.49,6.83,3.11,14,3,21.48,3-16.92-2.54-34.41-14.42-47.37-23.09-10.1-6.76-8.05-7.12-19-5.5-9.39,1.39-12.05.15-20.12-5.47-5.46-3.81-12.51-7.7-16.36-13-4.5-6.21-5.24-19.16-15.51-12.57-3.82,2.44-3.66,8.36-6.24,11.79-2.79,3.69-6.67,5.46-9.83,8.68-5.22,5.31-9.57,11.53-14.7,17.42-6.11,7-32.8,30.86-36.46,37.13" transform="translate(-2.67 -243.09)"/><path class="cls-1" d="M217.91,277.34c-6.25,4.63-11.85,11.61-17.72,17.21-3.82,3.66-10.26,7.7-12.68,12,8.19.77,17.82-11.52,26-14.27,10.81-3.62,20.6.3,31.28.09-3.22-2.36-7.49-4.16-10.48-6.1,10.39-.7,21.56,1.65,31.41,3.91-3.58-3.6-9.48-5.81-14.82-6.33,5.26,0,11.09-.37,15.65.89-6.22-4.28-14.29-5.78-19.52-11.52-4.78-5.24-4.84-13.53-11.52-16.46-.61,10.52-1.35,15.71,7.56,20.55-4.1,4-10.79,2-15.16-1-.73,5.9-6,4.87-8.93,1" transform="translate(-2.67 -243.09)"/><path d="M841.89,343.17c-7.13-3.12-25.48-13.66-36.3-19.69-12.91-7.19-26.9-10.84-40.27-15.9-12.17-4.6-26.44-5-38.19.95-6,3-9.81,6.71-15.58,8.85-9.19,3.42-12.69,4.42-20.55,10.9,1.09-15.34,24.15-10.43,22.81-21.68-17.24-8.83-24,4.38-37.61,9.62-3.14,1.21-7.53-1-10.78.19-2.81,1-4.65,4.82-7.58,6.16-7.66,3.49-15.7,3.3-24.08,3.36,19-2.85,38.59-16.17,53.12-25.89,11.33-7.58,9-8,21.31-6.17,10.54,1.56,13.52.17,22.57-6.13,6.12-4.27,14-8.64,18.35-14.6,5-7,5.87-21.5,17.39-14.11,4.29,2.75,4.11,9.39,7,13.23,3.12,4.13,7.48,6.13,11,9.74,5.85,5.95,10.73,12.92,16.48,19.53,6.85,7.88,36.78,34.61,40.88,41.64" transform="translate(-2.67 -243.09)"/><path class="cls-1" d="M782.39,285.63c7,5.19,13.29,13,19.87,19.3,4.29,4.1,11.5,8.63,14.23,13.49-9.19.86-20-12.92-29.19-16-12.12-4.06-23.1.33-35.08.09,3.61-2.64,8.41-4.65,11.75-6.84-11.64-.78-24.17,1.86-35.22,4.39,4-4,10.64-6.52,16.63-7.1-5.9,0-12.45-.41-17.55,1,7-4.8,16-6.48,21.88-12.92,5.36-5.87,5.43-15.18,12.92-18.46.69,11.8,1.52,17.62-8.48,23.05,4.6,4.49,12.1,2.18,17-1.11.82,6.61,6.76,5.46,10,1.11" transform="translate(-2.67 -243.09)"/></g><g id="Layer_3" data-name="Layer 3"><path d="M36.73,296.45c4.13-2,8.47-8.08,12.92-9.1,5-1.16,7.37,3.75,11.92,6a29.54,29.54,0,0,0-.43-6.5c4.28-.27,4-2.51,6.43-4.53a20.61,20.61,0,0,0,2.74-2.08c.14-.22,2.52-4.05,2.28-3.85,6.16-5.09,9.85-.75,16.34-.68-2-3.93-.22-5.65,3.24-6.36,1.82.65,3.39.59,5.19,1-3-.7-6-4.27-5.92-7.31.09-4,3.59-4,3.76-7.83a7.63,7.63,0,0,1,3.46,0c-.55,3.95,2.9,6.79,6.09,7.3a8.52,8.52,0,0,0,.18,2.25c2,.17,3.87.85,5.88.79,1.18,2.34,1.08,1.73,3.07,2.87-1.31-4.72-6.13-6.38-9.22-10.09-2.28-2.74-4.45-9.27-7-11.15-4.53-3.38-6.3,1.54-9.73,5.05-3,3-7.36,5.68-10,8.82-2.84,3.33-3.06,7.69-6.53,11.1a60,60,0,0,1-14,9.88c-4.3,2-7.27,1.66-11.09,4.56-3,2.27-6.92,6.66-8.36,9.88" transform="translate(-2.67 -243.09)"/><path d="M70.17,284.29c5.57-.46,10.44-4.38,15.72-5.4a9,9,0,0,1-2.13,6.52c3,0,4.16-2.52,6.62-3.42,2.09-.76,5-.09,7-.66a18.28,18.28,0,0,1,.82,7.14c2.88-.82,5.66-5.33,8.56-7,3.42-2,6.35-3.25,10.81-2.66,8.39,1.12,7.93,10.41,16.84,9.81-3.77-1.64-11.63-8.37-11.87-12.8-.31-5.76,4-13.55,9.52-6.71,1.94,2.41,1.53,5.55,4.36,7.8,2.39,1.89,5.94,1.93,8.51,3.6,4.45,2.9,7,8.52,12.18,10.25.06-1.4,1-3.43.69-5.15,9.55,3.57,20.6,15.49,31.48,15-6.27-4.42-13.74-7-19.86-12.17-2.88-2.45-5.11-4-7.46-7.15-.62-.84-2.15-4.64-3-4.91-3.8-1.19-1.55,1.7-3.69,3.1-1.51,1-.11,3.05-3,2.92-1.13-.05-3.26-2.91-4.09-3.66a48.81,48.81,0,0,0-9.3-7.06c-5.58-3.21-10-11.18-15.65-13.44-1.85,3-5,6.94-8.22,8.36-1-.45-1.77-.18-2.77-.41-1.71,4.61-7.18,3.54-10.92,5.51-4.16,2.19-6.39,6.42-11.11,7.54-.33-9.3-17.74,2.21-19.43,5.09" transform="translate(-2.67 -243.09)"/><path d="M37.33,306.79a55.19,55.19,0,0,0,9.73-3.05c1.36-.53,3.46-.74,4.75-1.19,1-.37,1.55-2.51,3.15-2.95,1.21-.34,2.65,2,4.28,1.73s2.15-1.64,3.65-2.46c2.75-1.49,4.87-3.67,7.8-4.79.48,4-3.17,6.51-2.24,10.84,2.54-1.95,2.38-5.38,4-8s3.49-3.39,5.11-5.84c6.3-1,15.84,3.76,21.15,6,3.56,1.51,8.11,2,11.58,4.06,2.94,1.77,4.77,4.82,8.91,4.4-4.6,2.43-14,5-16.62,9.66,7.8-1,15-8.24,22.79-8.94,1.67,3.18,4.74,2.34,5.73-1.23a4.94,4.94,0,0,0,5.22-1.23c.38,2.23,1.15,2.69,2.46,4.15-1.71-9.92,11.31-1.17,15.89,1.13,6.42,3.22,14,4.38,21.12,5.62-7.54-1.77-15.73-6.56-23-9.74-4.92-2.17-14.31-6.23-16.37-11-8.78,7.44-12.74,9-23.13,3.72-7.6-3.87-17.15-6.87-25.67-10.17-5.51-2.14-5.77-.38-11.41,1.09-2,.52-3.44-.44-5.64.55-1.73.77-3.85,3.64-5.8,4.74-4.87,2.78-9.41,2.1-14.12,3.91s-8,6.54-11.55,9.61" transform="translate(-2.67 -243.09)"/><path d="M107.27,295.84c9.72-2.58,21.88-2.36,26.89-12.69,2.54.48,4.09,2.83,6.57,3.6,2,.6,2.57-1.46,5.3.09,4.3,2.45,5.81,8,11.11,10.22a85.47,85.47,0,0,0,29.91,6.08c-15.09,0-39.91,1.64-47.1-14.5-.71,1-2.75,1.9-3.47,3-.54-1.25-1.8-1.68-1.93-3.67a60.33,60.33,0,0,1-27.89,9.68" transform="translate(-2.67 -243.09)"/><path d="M3.14,299.51c7.52-4.06,16.92-3.72,20.79-20,2,.75,3.16,4.46,5.08,5.67,1.52,1,2-2.29,4.09.15,3.33,3.86,4.49,12.55,8.59,16.11,7.08,6.14,16.29,9.44,23.13,9.59C53.15,311,34,313.6,28.41,288.16c-.56,1.51-2.13,3-2.69,4.76-.42-2-1.39-2.66-1.49-5.8C17.71,295.8,10.45,301,2.67,302.39" transform="translate(-2.67 -243.09)"/><path d="M358.63,293.51c4.14-2,8.47-8.08,12.92-9.1,5.05-1.16,7.37,3.75,11.92,6a30.17,30.17,0,0,0-.42-6.5c4.27-.27,4-2.51,6.43-4.53a22.24,22.24,0,0,0,2.74-2.08c.14-.22,2.52-4,2.28-3.85,6.15-5.09,9.84-.75,16.34-.68-2-3.93-.23-5.65,3.24-6.36,1.82.65,3.38.59,5.18,1-2.95-.7-6-4.27-5.91-7.31.09-4,3.58-4,3.75-7.83a7.67,7.67,0,0,1,3.47,0c-.56,3.95,2.9,6.79,6.08,7.3a8.53,8.53,0,0,0,.19,2.25c2,.17,3.87.85,5.88.79,1.18,2.34,1.08,1.73,3.06,2.87-1.31-4.72-6.13-6.38-9.22-10.09-2.28-2.74-4.45-9.27-7-11.15-4.53-3.38-6.31,1.54-9.73,5.05-3,3-7.36,5.68-10,8.82-2.84,3.33-3.05,7.69-6.52,11.1a60.3,60.3,0,0,1-14,9.88c-4.29,2-7.27,1.65-11.08,4.56-3,2.27-6.92,6.65-8.36,9.88" transform="translate(-2.67 -243.09)"/><path d="M392.08,281.35c5.57-.46,10.43-4.38,15.72-5.4a9,9,0,0,1-2.13,6.52c3,0,4.16-2.52,6.61-3.42,2.1-.76,5.05-.09,7-.66a18.1,18.1,0,0,1,.82,7.14c2.89-.82,5.67-5.33,8.56-7,3.42-2,6.35-3.25,10.81-2.66,8.39,1.12,7.94,10.41,16.85,9.81-3.78-1.64-11.64-8.37-11.87-12.8-.31-5.76,4-13.55,9.51-6.71,1.94,2.41,1.53,5.55,4.37,7.8,2.38,1.89,5.93,1.93,8.51,3.6,4.45,2.9,7,8.52,12.18,10.25.06-1.4,1-3.43.68-5.15,9.56,3.57,20.6,15.49,31.48,15-6.27-4.42-13.73-7-19.85-12.17-2.88-2.45-5.12-4-7.46-7.15-.62-.84-2.16-4.64-3-4.91-3.8-1.19-1.55,1.7-3.7,3.1-1.5,1-.1,3.05-3,2.92-1.13-.05-3.26-2.91-4.09-3.66a48.88,48.88,0,0,0-9.31-7.06c-5.58-3.21-10-11.18-15.64-13.44-1.85,3-4.95,6.94-8.22,8.36-1-.45-1.78-.18-2.77-.41-1.72,4.61-7.19,3.54-10.92,5.51-4.16,2.19-6.4,6.42-11.11,7.54-.34-9.3-17.74,2.21-19.43,5.09" transform="translate(-2.67 -243.09)"/><path d="M359.24,303.85A55.19,55.19,0,0,0,369,300.8c1.36-.53,3.46-.74,4.74-1.19,1-.37,1.56-2.51,3.15-2.95,1.21-.34,2.65,2,4.29,1.73s2.14-1.64,3.65-2.46c2.74-1.49,4.86-3.68,7.8-4.79.48,4-3.17,6.51-2.24,10.84,2.53-2,2.38-5.38,4-8s3.48-3.39,5.1-5.84c6.31-1,15.85,3.76,21.15,6,3.56,1.51,8.12,2,11.58,4.06,2.94,1.77,4.78,4.82,8.91,4.4-4.6,2.43-13.95,5-16.61,9.66,7.79-1,15-8.24,22.79-8.94,1.67,3.18,4.73,2.34,5.73-1.23a4.94,4.94,0,0,0,5.22-1.23c.38,2.23,1.15,2.69,2.46,4.15-1.71-9.92,11.31-1.17,15.89,1.13,6.42,3.22,14,4.38,21.11,5.62-7.53-1.77-15.73-6.56-23-9.74-4.91-2.17-14.3-6.23-16.37-11-8.78,7.44-12.73,9-23.12,3.72-7.61-3.87-17.15-6.87-25.68-10.17-5.51-2.14-5.77-.38-11.4,1.09-2,.52-3.44-.44-5.65.55-1.72.77-3.84,3.64-5.79,4.74-4.88,2.78-9.42,2.1-14.12,3.91s-8.05,6.54-11.56,9.61" transform="translate(-2.67 -243.09)"/><path d="M429.18,292.9c9.72-2.58,21.88-2.36,26.89-12.69,2.54.48,4.09,2.83,6.57,3.6,2,.6,2.56-1.46,5.29.09,4.31,2.45,5.81,8,11.11,10.22A85.48,85.48,0,0,0,509,300.2c-15.1,0-39.91,1.64-47.1-14.5-.72,1-2.76,1.9-3.48,3-.54-1.25-1.8-1.68-1.93-3.68a60.16,60.16,0,0,1-27.88,9.69" transform="translate(-2.67 -243.09)"/><path d="M325,296.57c7.52-4.06,16.92-3.72,20.79-20,2,.75,3.16,4.46,5.08,5.67,1.53,1,2-2.29,4.09.15,3.33,3.86,4.5,12.55,8.6,16.11,7.08,6.14,16.28,9.44,23.12,9.59-11.67,0-30.85,2.58-36.41-22.86-.55,1.51-2.13,3-2.69,4.76-.41-2-1.39-2.66-1.49-5.8-6.52,8.68-13.77,13.88-21.56,15.27" transform="translate(-2.67 -243.09)"/><path d="M650.3,296c-4.13-2-8.47-8.08-12.92-9.1-5-1.16-7.37,3.75-11.92,6a29.54,29.54,0,0,1,.43-6.5c-4.28-.27-4-2.51-6.44-4.53a21.15,21.15,0,0,1-2.73-2.08c-.14-.22-2.52-4.05-2.28-3.85-6.16-5.09-9.85-.75-16.34-.68,2-3.93.22-5.65-3.24-6.36-1.83.65-3.39.59-5.19,1,3-.7,6-4.27,5.92-7.31-.09-4-3.59-4-3.76-7.83a7.67,7.67,0,0,0-3.47,0c.56,4-2.89,6.79-6.08,7.3a8.52,8.52,0,0,1-.18,2.25c-2,.17-3.87.85-5.88.79-1.18,2.34-1.08,1.73-3.07,2.87,1.31-4.72,6.13-6.38,9.22-10.09,2.28-2.74,4.45-9.27,7-11.15,4.53-3.38,6.3,1.54,9.73,5.05,3,3,7.35,5.68,10,8.82,2.84,3.33,3.06,7.69,6.53,11.1a60,60,0,0,0,14,9.88c4.3,2,7.27,1.66,11.08,4.56,3,2.27,6.92,6.66,8.37,9.88" transform="translate(-2.67 -243.09)"/><path d="M616.86,283.88c-5.57-.46-10.44-4.37-15.72-5.4a9,9,0,0,0,2.12,6.52c-3,0-4.15-2.52-6.61-3.41-2.09-.77-5-.1-7-.67a18.28,18.28,0,0,0-.82,7.14c-2.88-.82-5.66-5.33-8.56-7-3.42-2-6.35-3.25-10.81-2.66-8.39,1.12-7.94,10.41-16.84,9.81,3.77-1.64,11.63-8.37,11.87-12.8.31-5.76-4-13.55-9.52-6.71-1.94,2.41-1.53,5.55-4.36,7.8-2.39,1.89-5.94,1.93-8.51,3.6-4.45,2.9-7,8.52-12.18,10.25-.06-1.4-1-3.43-.69-5.15-9.55,3.57-20.6,15.49-31.48,15,6.27-4.42,13.74-7,19.85-12.17,2.89-2.45,5.12-4,7.47-7.15.62-.84,2.15-4.64,3-4.91,3.8-1.19,1.55,1.7,3.69,3.1,1.51,1,.11,3.05,3,2.92,1.13-.05,3.26-2.91,4.09-3.66a48.81,48.81,0,0,1,9.3-7.06c5.58-3.21,10-11.18,15.65-13.44,1.84,3,5,6.94,8.22,8.36,1-.44,1.77-.18,2.77-.41,1.71,4.61,7.18,3.54,10.92,5.51,4.16,2.19,6.39,6.42,11.11,7.54.33-9.3,17.74,2.21,19.43,5.09" transform="translate(-2.67 -243.09)"/><path d="M649.7,306.38a55.19,55.19,0,0,1-9.73-3.05c-1.36-.53-3.46-.74-4.75-1.19-1-.37-1.55-2.51-3.15-2.95-1.21-.34-2.65,2.05-4.28,1.73s-2.15-1.64-3.65-2.46c-2.75-1.49-4.87-3.67-7.8-4.79-.48,4,3.17,6.51,2.23,10.84-2.53-1.95-2.37-5.38-4-8s-3.49-3.39-5.11-5.84c-6.3-1-15.84,3.76-21.15,6-3.56,1.51-8.12,2-11.58,4.06-2.94,1.77-4.77,4.82-8.91,4.4,4.6,2.43,14,5,16.62,9.66-7.8-1-15-8.24-22.79-8.94-1.67,3.18-4.74,2.35-5.73-1.23a4.94,4.94,0,0,1-5.22-1.23c-.38,2.23-1.15,2.69-2.47,4.15,1.72-9.92-11.31-1.17-15.88,1.13-6.42,3.22-14,4.38-21.12,5.62,7.53-1.77,15.73-6.56,23-9.74,4.92-2.17,14.31-6.23,16.37-11,8.78,7.44,12.74,9,23.13,3.72,7.6-3.87,17.14-6.87,25.67-10.17,5.51-2.14,5.77-.38,11.41,1.09,2,.52,3.44-.44,5.64.55,1.72.77,3.85,3.64,5.8,4.75,4.87,2.77,9.41,2.09,14.12,3.9s8,6.54,11.55,9.61" transform="translate(-2.67 -243.09)"/><path d="M579.76,295.43c-9.73-2.58-21.89-2.36-26.89-12.69-2.54.48-4.09,2.83-6.57,3.6-2,.6-2.57-1.46-5.3.09-4.3,2.45-5.81,8-11.11,10.22A85.47,85.47,0,0,1,500,302.73c15.09,0,39.91,1.64,47.09-14.5.72,1,2.76,1.9,3.48,3,.54-1.25,1.8-1.68,1.93-3.67a60.29,60.29,0,0,0,27.89,9.68" transform="translate(-2.67 -243.09)"/><path d="M683.89,299.11c-7.52-4.07-16.92-3.73-20.79-20-2,.75-3.16,4.46-5.08,5.67-1.52,1-2-2.29-4.09.15-3.33,3.86-4.49,12.55-8.59,16.11-7.08,6.14-16.29,9.44-23.13,9.59,11.67,0,30.86,2.58,36.41-22.86.56,1.51,2.13,3,2.69,4.76.42-2,1.39-2.66,1.49-5.8,6.52,8.68,13.78,13.88,21.56,15.27" transform="translate(-2.67 -243.09)"/></g></svg>