<svg xmlns="http://www.w3.org/2000/svg" viewBox="0 0 841.89 115.86"><defs><style>.cls-1{fill:#fff;}.cls-2{fill:#b7b7ed;}</style></defs><title>Mountains1</title><g id="Layer_5" data-name="Layer 5"><polygon class="cls-1" points="0 88.09 17.19 77.99 38.08 62.38 48.27 67.72 50.56 75.93 55.15 77.71 75.07 63.68 89.53 57.21 120.09 38.85 145.56 11.77 150.66 11.77 174.05 34.48 190.39 27.05 198.51 29.09 208.73 38.85 221.46 49.93 235.22 62.55 241.33 54.05 266.29 72.65 281.06 81.27 290.31 86.69 301.66 86.69 320.79 67.26 335.31 70.35 338.11 77.99 339.22 83.05 359.6 67.26 373.5 65.45 383.2 57.21 433.73 14.72 441.61 24.1 451.1 33.26 460.6 39.28 474.27 32.33 484.69 36.27 496.04 49.93 518.98 64.76 535.65 66.45 565.89 86.37 570.71 86.57 603.07 66.45 608.39 68.93 652.41 36.03 669.55 46 696.65 18.2 703.14 20.28 736.49 53.41 755.26 67.26 770.31 71.63 780.12 79.79 790.47 89.42 805.99 68.7 818.73 81.89 834.48 91.4 838.19 94.01 838.19 113.64 563.92 115.86 229.19 111.97 2.67 115.86 0 88.09"/></g><g id="Layer_3" data-name="Layer 3"><path class="cls-2" d="M55.15,281.34c6.38-3.15,13.06-12.46,19.92-14,7.77-1.79,11.36,5.79,18.37,9.23.32-3.6-.26-6.69-.66-10,6.59-.41,6.12-3.86,9.91-7,1-.83,3.64-2.34,4.22-3.21.22-.33,3.89-6.23,3.52-5.92,9.49-7.86,15.17-1.16,25.18-1.06-3-6.05-.35-8.69,5-9.8,2.81,1,5.22.92,8,1.55-4.54-1.08-9.21-6.59-9.11-11.27.14-6.14,5.52-6.18,5.78-12.06a11.79,11.79,0,0,1,5.35,0c-.86,6.09,4.47,10.47,9.37,11.24a13.46,13.46,0,0,0,.28,3.47c3.06.26,6,1.31,9.07,1.22,1.82,3.61,1.66,2.67,4.72,4.42-2-7.27-9.45-9.83-14.21-15.55-3.51-4.22-6.86-14.28-10.73-17.17-7-5.21-9.72,2.36-15,7.77-4.58,4.7-11.33,8.75-15.46,13.59-4.38,5.14-4.71,11.85-10.06,17.11A92.28,92.28,0,0,1,87,259.07c-6.62,3.11-11.21,2.56-17.08,7C65.33,269.6,59.25,276.36,57,281.34" transform="translate(0 -203.63)"/><path class="cls-2" d="M106.7,262.59c8.58-.71,16.08-6.74,24.23-8.31.44,3.71-1,7-3.28,10,4.61,0,6.4-3.88,10.19-5.27,3.23-1.18,7.77-.14,10.85-1A28.13,28.13,0,0,1,150,269c4.44-1.25,8.73-8.21,13.19-10.85,5.27-3.12,9.79-5,16.66-4.09,12.93,1.72,12.23,16,26,15.11-5.82-2.52-17.93-12.89-18.3-19.73-.47-8.88,6.17-20.88,14.67-10.33,3,3.7,2.36,8.55,6.73,12,3.67,2.91,9.14,3,13.12,5.55,6.85,4.46,10.82,13.13,18.76,15.79.1-2.16,1.59-5.29,1.06-7.94,14.72,5.5,31.74,23.88,48.51,23.12-9.66-6.82-21.17-10.75-30.59-18.76-4.45-3.78-7.89-6.13-11.5-11-1-1.29-3.32-7.15-4.64-7.57-5.86-1.83-2.39,2.62-5.7,4.78-2.32,1.51-.16,4.7-4.66,4.49-1.74-.08-5-4.48-6.3-5.64-4.92-4.47-8.48-7.51-14.34-10.87-8.6-4.95-15.42-17.23-24.11-20.72-2.85,4.65-7.63,10.7-12.67,12.89-1.52-.69-2.73-.27-4.27-.63-2.64,7.1-11.07,5.46-16.83,8.48-6.41,3.38-9.85,9.9-17.12,11.62-.52-14.32-27.34,3.41-29.94,7.85" transform="translate(0 -203.63)"/><path class="cls-2" d="M56.09,297.27c4.86-.85,10.43-2.93,15-4.71,2.09-.81,5.32-1.13,7.31-1.83,1.6-.57,2.39-3.86,4.85-4.54,1.87-.52,4.09,3.16,6.6,2.66s3.31-2.53,5.63-3.79c4.23-2.29,7.5-5.66,12-7.38.74,6.19-4.88,10-3.45,16.7,3.9-3,3.67-8.29,6.19-12.31s5.37-5.22,7.87-9c9.72-1.58,24.42,5.81,32.59,9.26,5.49,2.32,12.51,3,17.85,6.25,4.53,2.73,7.36,7.43,13.73,6.78-7.09,3.75-21.5,7.68-25.6,14.9,12-1.53,23.11-12.71,35.11-13.78,2.58,4.9,7.31,3.61,8.84-1.89a7.62,7.62,0,0,0,8-1.9c.59,3.44,1.78,4.15,3.8,6.39-2.64-15.28,17.43-1.8,24.48,1.74,9.9,5,21.6,6.75,32.54,8.66-11.61-2.72-24.24-10.1-35.38-15-7.57-3.34-22.05-9.6-25.23-17-13.53,11.48-19.63,13.88-35.64,5.74-11.72-6-26.42-10.59-39.57-15.68-8.49-3.28-8.89-.57-17.57,1.69-3,.79-5.3-.68-8.7.85-2.66,1.19-5.93,5.6-8.93,7.31-7.51,4.28-14.51,3.23-21.76,6s-12.4,10.08-17.81,14.81" transform="translate(0 -203.63)"/><path class="cls-2" d="M163.87,280.4c15-4,33.73-3.64,41.44-19.56,3.91.73,6.3,4.36,10.13,5.54,3,.93,3.95-2.24,8.16.15,6.63,3.77,9,12.26,17.12,15.74,14.12,6,32.47,9.22,46.1,9.37-23.26,0-61.51,2.53-72.58-22.34-1.11,1.48-4.25,2.92-5.36,4.65-.83-1.93-2.77-2.59-3-5.66a92.69,92.69,0,0,1-43,14.92" transform="translate(0 -203.63)"/><path class="cls-2" d="M3.39,286.05c11.59-6.27,26.08-5.74,32-30.84,3,1.16,4.87,6.88,7.83,8.74,2.35,1.47,3.05-3.53,6.3.23,5.14,5.95,6.93,19.34,13.24,24.82,10.92,9.47,25.11,14.55,35.64,14.79-18,0-47.55,4-56.11-35.24-.85,2.34-3.28,4.61-4.14,7.34-.64-3-2.14-4.09-2.3-8.93-10,13.36-21.22,21.38-33.22,23.53" transform="translate(0 -203.63)"/><path class="cls-2" d="M339.91,286.68c6.37-3.15,13-12.45,19.91-14,7.78-1.79,11.36,5.79,18.37,9.22.33-3.59-.26-6.69-.65-10,6.59-.41,6.11-3.86,9.91-7,1-.84,3.64-2.34,4.21-3.21.23-.34,3.89-6.24,3.52-5.93,9.49-7.85,15.18-1.15,25.18-1-3-6.06-.34-8.7,5-9.8,2.82,1,5.22.91,8,1.55-4.54-1.09-9.21-6.59-9.11-11.27.14-6.14,5.53-6.18,5.79-12.07a11.75,11.75,0,0,1,5.34,0c-.86,6.09,4.47,10.47,9.37,11.25a13.54,13.54,0,0,0,.29,3.47c3.05.25,6,1.31,9.06,1.21,1.82,3.62,1.67,2.67,4.73,4.43-2-7.28-9.45-9.84-14.21-15.56-3.52-4.22-6.86-14.28-10.74-17.17-7-5.21-9.71,2.36-15,7.78-4.58,4.69-11.34,8.74-15.47,13.59-4.37,5.14-4.7,11.85-10,17.11a92.72,92.72,0,0,1-21.6,15.22c-6.62,3.1-11.2,2.55-17.08,7-4.58,3.5-10.66,10.26-12.89,15.23" transform="translate(0 -203.63)"/><path class="cls-2" d="M391.45,267.94c8.59-.71,16.08-6.75,24.23-8.32.44,3.72-1,7-3.28,10.05,4.62,0,6.41-3.88,10.19-5.27,3.23-1.18,7.77-.14,10.85-1a28.18,28.18,0,0,1,1.27,11c4.44-1.25,8.73-8.2,13.18-10.84,5.27-3.12,9.79-5,16.67-4.1,12.92,1.72,12.23,16.05,25.95,15.11-5.81-2.52-17.93-12.89-18.29-19.72-.47-8.88,6.16-20.88,14.67-10.34,3,3.71,2.35,8.56,6.72,12,3.68,2.92,9.15,3,13.12,5.56,6.86,4.45,10.82,13.13,18.76,15.78.1-2.15,1.59-5.28,1.06-7.93,14.73,5.5,31.75,23.87,48.52,23.12-9.67-6.82-21.17-10.76-30.6-18.77-4.44-3.77-7.89-6.13-11.5-11-1-1.29-3.32-7.15-4.64-7.56-5.86-1.84-2.39,2.62-5.69,4.77-2.32,1.51-.16,4.7-4.66,4.5-1.74-.08-5-4.49-6.31-5.65-4.92-4.46-8.47-7.5-14.33-10.87-8.6-4.94-15.42-17.22-24.11-20.71-2.85,4.65-7.63,10.69-12.68,12.89-1.51-.69-2.73-.28-4.27-.64-2.64,7.11-11.07,5.46-16.82,8.49-6.41,3.37-9.86,9.9-17.12,11.62-.52-14.33-27.35,3.41-29.95,7.85" transform="translate(0 -203.63)"/><path class="cls-2" d="M340.84,302.61c4.86-.84,10.43-2.93,15-4.7,2.1-.82,5.33-1.14,7.31-1.84,1.61-.57,2.4-3.86,4.85-4.54,1.87-.52,4.09,3.17,6.61,2.67s3.3-2.54,5.62-3.79c4.24-2.3,7.5-5.67,12-7.38.75,6.19-4.88,10-3.44,16.7,3.9-3,3.66-8.29,6.18-12.32s5.37-5.21,7.87-9c9.72-1.58,24.42,5.8,32.6,9.26,5.48,2.31,12.51,3,17.85,6.25,4.53,2.73,7.35,7.42,13.73,6.77-7.09,3.75-21.5,7.68-25.61,14.9,12-1.53,23.11-12.7,35.12-13.77,2.57,4.89,7.3,3.6,8.83-1.9a7.62,7.62,0,0,0,8.05-1.9c.58,3.44,1.77,4.15,3.79,6.39-2.63-15.28,17.43-1.79,24.48,1.74,9.9,5,21.61,6.75,32.54,8.66-11.6-2.72-24.23-10.1-35.37-15-7.58-3.33-22.05-9.6-25.23-17C480.1,294.29,474,296.7,458,288.55c-11.72-6-26.43-10.58-39.57-15.67-8.49-3.29-8.89-.58-17.58,1.69-3,.79-5.3-.68-8.69.84-2.66,1.19-5.93,5.6-8.94,7.31-7.51,4.28-14.51,3.23-21.76,6s-12.39,10.08-17.8,14.81" transform="translate(0 -203.63)"/><path class="cls-2" d="M448.62,285.74c15-4,33.73-3.64,41.45-19.56,3.91.73,6.3,4.36,10.12,5.54,3,.94,3.95-2.24,8.16.15,6.64,3.78,8.95,12.27,17.12,15.74,14.12,6,32.48,9.23,46.11,9.38-23.27,0-61.51,2.52-72.59-22.35-1.1,1.48-4.24,2.93-5.36,4.65-.82-1.92-2.77-2.59-3-5.66a92.73,92.73,0,0,1-43,14.92" transform="translate(0 -203.63)"/><path class="cls-2" d="M288.15,291.4c11.58-6.27,26.07-5.74,32-30.84,3,1.15,4.87,6.87,7.82,8.73,2.35,1.48,3.06-3.53,6.31.24,5.13,6,6.92,19.34,13.24,24.82,10.91,9.47,25.1,14.54,35.64,14.78-18,0-47.55,4-56.11-35.24-.86,2.34-3.29,4.61-4.15,7.34-.64-3-2.14-4.09-2.3-8.93-10,13.37-21.22,21.38-33.22,23.53" transform="translate(0 -203.63)"/><path class="cls-2" d="M789.4,290.58c-6.37-3.15-13-12.45-19.91-14-7.77-1.79-11.36,5.79-18.37,9.22-.32-3.59.26-6.69.66-10-6.59-.41-6.12-3.86-9.92-7-1-.84-3.63-2.34-4.21-3.21-.22-.34-3.89-6.24-3.52-5.93-9.49-7.85-15.17-1.15-25.18-1.05,3-6.06.34-8.7-5-9.8-2.81,1-5.22.91-8,1.55,4.54-1.09,9.21-6.59,9.11-11.27-.14-6.14-5.53-6.18-5.79-12.07a11.75,11.75,0,0,0-5.34,0c.86,6.09-4.47,10.47-9.37,11.25a13.54,13.54,0,0,1-.29,3.47c-3,.25-6,1.31-9.06,1.21-1.82,3.62-1.66,2.67-4.73,4.43,2-7.28,9.46-9.84,14.22-15.56,3.51-4.22,6.86-14.28,10.73-17.17,7-5.21,9.72,2.36,15,7.78,4.57,4.69,11.33,8.74,15.46,13.59,4.38,5.14,4.7,11.85,10.06,17.11a92.66,92.66,0,0,0,21.59,15.22c6.62,3.1,11.21,2.55,17.08,7,4.58,3.5,10.67,10.26,12.89,15.23" transform="translate(0 -203.63)"/><path class="cls-2" d="M737.86,271.84c-8.59-.71-16.08-6.75-24.23-8.32-.44,3.72,1,7,3.28,10.05-4.61,0-6.4-3.88-10.19-5.27-3.23-1.18-7.77-.14-10.85-1a28.18,28.18,0,0,0-1.26,11c-4.44-1.25-8.73-8.2-13.19-10.84-5.27-3.12-9.79-5-16.66-4.1-12.93,1.72-12.23,16.05-26,15.11,5.81-2.52,17.93-12.89,18.29-19.73.48-8.87-6.16-20.87-14.66-10.33-3,3.71-2.36,8.56-6.73,12-3.67,2.91-9.14,3-13.12,5.56-6.85,4.45-10.82,13.12-18.76,15.78-.1-2.15-1.59-5.28-1.06-7.93-14.72,5.5-31.74,23.87-48.52,23.12,9.67-6.82,21.17-10.76,30.6-18.77,4.45-3.77,7.89-6.13,11.5-11,.95-1.29,3.32-7.15,4.64-7.56,5.86-1.84,2.39,2.62,5.69,4.77,2.32,1.51.17,4.7,4.67,4.5,1.73-.08,5-4.49,6.3-5.65,4.92-4.46,8.47-7.5,14.34-10.87,8.6-4.94,15.41-17.22,24.11-20.71,2.85,4.65,7.63,10.69,12.67,12.89,1.51-.69,2.73-.28,4.27-.64,2.64,7.11,11.07,5.46,16.82,8.49,6.42,3.37,9.86,9.9,17.13,11.61.52-14.32,27.34,3.42,29.94,7.86" transform="translate(0 -203.63)"/><path class="cls-2" d="M788.47,306.51c-4.86-.84-10.43-2.93-15-4.7-2.09-.82-5.32-1.14-7.31-1.84-1.6-.57-2.39-3.86-4.85-4.54-1.87-.52-4.09,3.17-6.61,2.67s-3.3-2.54-5.62-3.79c-4.23-2.3-7.5-5.67-12-7.38-.74,6.19,4.88,10,3.45,16.7-3.9-3-3.67-8.29-6.19-12.32s-5.37-5.21-7.87-9c-9.72-1.58-24.42,5.8-32.59,9.25-5.49,2.32-12.52,3-17.86,6.26-4.53,2.73-7.35,7.42-13.72,6.77,7.08,3.75,21.49,7.68,25.6,14.9-12-1.53-23.11-12.7-35.12-13.77-2.57,4.89-7.3,3.6-8.83-1.9a7.6,7.6,0,0,1-8-1.9c-.59,3.44-1.78,4.15-3.8,6.39,2.64-15.28-17.43-1.79-24.48,1.74-9.9,5-21.61,6.75-32.54,8.66,11.6-2.72,24.23-10.1,35.38-15,7.57-3.33,22-9.6,25.23-17,13.53,11.47,19.63,13.88,35.64,5.73,11.72-6,26.42-10.58,39.56-15.67,8.5-3.29,8.9-.58,17.58,1.69,3,.79,5.3-.68,8.7.84,2.65,1.19,5.93,5.6,8.93,7.31,7.51,4.28,14.51,3.23,21.76,6s12.4,10.08,17.81,14.81" transform="translate(0 -203.63)"/><path class="cls-2" d="M680.69,289.64c-15-4-33.73-3.64-41.45-19.56-3.91.73-6.29,4.36-10.12,5.54-3,.94-4-2.24-8.16.15-6.64,3.77-9,12.27-17.12,15.74-14.12,6-32.47,9.23-46.11,9.38,23.27,0,61.51,2.52,72.59-22.35,1.1,1.48,4.25,2.93,5.36,4.65.83-1.92,2.77-2.59,3-5.66a92.77,92.77,0,0,0,43,14.92" transform="translate(0 -203.63)"/><path class="cls-2" d="M841.16,295.3c-11.58-6.27-26.07-5.74-32-30.84-3,1.15-4.86,6.87-7.82,8.73-2.35,1.48-3.06-3.53-6.31.24-5.13,5.95-6.92,19.34-13.24,24.82-10.91,9.47-25.1,14.54-35.64,14.78,18,0,47.55,4,56.12-35.24.85,2.34,3.28,4.61,4.14,7.34.64-3,2.14-4.09,2.3-8.93,10,13.37,21.22,21.38,33.22,23.53" transform="translate(0 -203.63)"/></g></svg>