<?xml version="1.0" encoding="utf-8"?>
<!-- Generator: Adobe Illustrator 24.0.1, SVG Export Plug-In . SVG Version: 6.00 Build 0)  -->
<svg version="1.1" id="Layer_1" xmlns="http://www.w3.org/2000/svg" xmlns:xlink="http://www.w3.org/1999/xlink" x="0px" y="0px"
	 viewBox="0 0 1048.6 2233.8" style="enable-background:new 0 0 1048.6 2233.8;" xml:space="preserve">
<style type="text/css">
	.st0{fill:#5960AD;stroke:#F5F5F5;stroke-miterlimit:10;}
	.st1{fill:#F0D374;stroke:#F5F5F5;stroke-miterlimit:10;}
	.st2{fill:#74CDF0;stroke:#F5F5F5;stroke-miterlimit:10;}
	.st3{fill:#91C7F6;stroke:#F5F5F5;stroke-miterlimit:10;}
	.st4{fill:#415DE8;stroke:#F5F5F5;stroke-miterlimit:10;}
	.st5{fill:#EEEBB0;stroke:#F5F5F5;stroke-miterlimit:10;}
	.st6{fill:none;stroke:#F5F5F5;stroke-width:2;stroke-miterlimit:10;}
</style>
<polygon class="st0" points="345.7,-0.1 510.9,174.1 348.8,345.1 "/>
<polygon class="st0" points="187.4,521.7 25,348.3 342.6,350.2 "/>
<path class="st1" d="M345.7-0.1L184.4,174.1C184.4,174.1,172.6,21.3,345.7-0.1z"/>
<path class="st1" d="M182.4,176L25.6-1.5C25.6-1.5,193.9,18.8,182.4,176z"/>
<path class="st1" d="M23.6,351.2l160.7-174.7C184.3,176.5,196.6,329.3,23.6,351.2z"/>
<path class="st1" d="M186.3,174.6l157.5,177.1C343.7,351.6,175.3,331.8,186.3,174.6z"/>
<path class="st2" d="M343.2,350.3l164.3-172C507.5,178.4,516.6,331.3,343.2,350.3z"/>
<path class="st2" d="M506.2,177.1L348.1,0.4C348.1,0.4,516.6,19.8,506.2,177.1z"/>
<path class="st3" d="M24.3,21l-1.5,287.1c0,0,31.8-127.1,151.3-134c0,0-155.2-42.8-149.7-167.1"/>
<path class="st3" d="M343,25.3l1.5,287.1c0,0-31.8-127.1-151.3-134c0,0,155.2-42.8,149.7-167.1"/>
<path class="st2" d="M23.6,350.6l161.1,174.4C184.7,525.1,15.9,508,23.6,350.6z"/>
<path class="st2" d="M178.2,525.1l164.3-172C342.5,353.2,351.6,506.1,178.2,525.1z"/>
<path class="st3" d="M17.6,345.9l318.3,4.9c0,0-140.6-30.3-146.7-138.1c0,0-49.4,139.4-187.1,132.9"/>
<path class="st3" d="M346.4-1.3L28.1-0.2c0,0,141.3,27.6,149.9,135.2c0,0,46.1-140.3,184-136.5"/>
<path class="st4" d="M23.6,350.6l-2.1,175.5l156.7-1.1C178.2,525.1,18.4,504,23.6,350.6z"/>
<path class="st4" d="M355.6,3.4c0,0,160.1,19.8,156.4,173.1L512.3,1"/>
<path class="st4" d="M182.9,527c0,0,160-20.7,155.3-174l1.4,175.6"/>
<path class="st4" d="M350,353c0,0,160-20.7,155.3-174l1.4,175.6"/>
<path class="st5" d="M20.4,1l159.2,175.8C179.6,176.8,11,158.3,20.4,1z"/>
<path class="st5" d="M343.5,348.3L177.3,177.9C177.3,177.9,346.6,190.9,343.5,348.3z"/>
<path class="st5" d="M176.1,173.1l-154.8,179C21.3,352.1,3.9,199.7,176.1,173.1z"/>
<path class="st5" d="M180.1,174.7l160.4-175C340.5-0.2,353.1,152.5,180.1,174.7z"/>
<ellipse class="st6" cx="183.6" cy="348.3" rx="165.2" ry="174.2"/>
<ellipse class="st6" cx="345.7" cy="174.1" rx="165.2" ry="174.2"/>
<polygon class="st0" points="176.7,530.6 336.7,706.1 19.1,699.9 "/>
<path class="st2" d="M338.1,703.8L179.4,527.2C179.4,527.2,348,546.6,338.1,703.8z"/>
<path class="st2" d="M185.9,527.3L19.3,697C19.3,697,12.3,544,185.9,527.3z"/>
<path class="st4" d="M338.1,703.8l4.5-175.5l-156.7-1C185.9,527.3,345.5,550.6,338.1,703.8z"/>
<path class="st4" d="M181.2,525.4c0,0-160.2,18.5-157.7,171.9l1-175.6"/>
<ellipse transform="matrix(1.873410e-02 -0.9998 0.9998 1.873410e-02 -529.1273 868.8934)" class="st6" cx="178.1" cy="704" rx="174.2" ry="165.2"/>
<path class="st1" d="M348.2,697.8L186.8,872.1C186.8,872.1,175.1,719.3,348.2,697.8z"/>
<path class="st1" d="M184.9,874L28,696.4C28,696.4,196.4,716.8,184.9,874z"/>
<path class="st1" d="M26.1,1049.1l160.7-174.7C186.8,874.5,199,1027.2,26.1,1049.1z"/>
<path class="st1" d="M188.7,872.6l157.5,177.1C346.2,1049.6,177.8,1029.7,188.7,872.6z"/>
<path class="st3" d="M26.8,719l-1.5,287.1c0,0,31.8-127.1,151.3-134c0,0-155.2-42.8-149.7-167.1"/>
<path class="st3" d="M345.4,723.3l1.5,287.1c0,0-31.8-127.1-151.3-134c0,0,155.2-42.8,149.7-167.1"/>
<path class="st3" d="M20.1,1043.8l318.3,4.9c0,0-140.6-30.3-146.7-138.1c0,0-49.4,139.4-187.1,132.9"/>
<path class="st3" d="M348.9,696.6l-318.4,1.1c0,0,141.3,27.6,149.9,135.2c0,0,46.1-140.3,184-136.5"/>
<path class="st5" d="M22.9,699l159.2,175.8C182.1,874.8,13.5,856.2,22.9,699z"/>
<path class="st5" d="M346,1046.3L179.8,875.9C179.8,875.9,349,888.8,346,1046.3z"/>
<path class="st5" d="M178.5,871.1l-154.8,179C23.8,1050.1,6.4,897.7,178.5,871.1z"/>
<path class="st5" d="M182.6,872.7l160.4-175C343,697.7,355.5,850.5,182.6,872.7z"/>
<polygon class="st0" points="516.9,184.2 701.8,6.9 694.7,359.6 "/>
<path class="st2" d="M699.3,5.4l-186,175.8C513.4,181.2,534-5.9,699.3,5.4z"/>
<path class="st2" d="M513.4,174l178.2,185.4C691.7,359.5,530.7,366.9,513.4,174z"/>
<path class="st4" d="M699.3,5.4L514.8,0l-1.4,174C513.4,174,538.2-3.1,699.3,5.4z"/>
<path class="st4" d="M511.4,179.2c0,0,19.2,178,180.5,175.4l-184.6-1.5"/>
<ellipse transform="matrix(0.8835 -0.4684 0.4684 0.8835 -4.2925 348.8343)" class="st6" cx="699.3" cy="183" rx="183.1" ry="183.6"/>
<path class="st1" d="M693.1-5.8l183,179.5C876,173.7,715.3,186.4,693.1-5.8z"/>
<path class="st1" d="M878,175.8L691.1,349.7C691.1,349.7,712.8,162.8,878,175.8z"/>
<path class="st1" d="M1062,352.5L878.6,173.7C878.6,173.7,1039.2,160.4,1062,352.5z"/>
<path class="st1" d="M876.6,171.6L1063-3C1063-3,1041.9,184,876.6,171.6z"/>
<path class="st3" d="M714.8,351.1l301.9,2.2c0,0-133.6-35.6-140.7-168.3c0,0-45.3,172.2-176,166"/>
<path class="st3" d="M719.8-2.7l301.9-1.2c0,0-133.8,35.1-141.2,167.8c0,0-44.7-172.4-175.5-166.6"/>
<path class="st3" d="M1056.4,359.2l5.7-353.5c0,0-32.1,156.1-145.4,162.7c0,0,146.5,55.1,139.5,208.1"/>
<path class="st3" d="M691.8-6.7l0.6,353.6c0,0,29.3-156.8,142.5-166.2c0,0-147.4-51.5-143.2-204.6"/>
<path class="st5" d="M693.7,355.5l185.1-176.5C878.9,178.9,859.1,366.2,693.7,355.5z"/>
<path class="st5" d="M1059.6-2.8L880,181.5C880,181.5,894-6.4,1059.6-2.8z"/>
<path class="st5" d="M875,182.9l188,172.2C1063,355.1,902.7,374.1,875,182.9z"/>
<path class="st5" d="M876.7,178.3L693-0.1C693-0.1,853.6-13.7,876.7,178.3z"/>
<polygon class="st0" points="185.9,1215.8 23.5,1042.4 341.2,1044.3 "/>
<path class="st2" d="M22.2,1044.7l161.1,174.4C183.3,1219.1,14.5,1202.1,22.2,1044.7z"/>
<path class="st2" d="M176.8,1219.2l164.3-172C341.1,1047.2,350.2,1200.2,176.8,1219.2z"/>
<path class="st4" d="M22.2,1044.7l-2.1,175.5l156.7-1.1C176.8,1219.2,16.9,1198,22.2,1044.7z"/>
<path class="st4" d="M181.5,1221c0,0,160-20.7,155.3-174l1.4,175.6"/>
<ellipse class="st6" cx="182.2" cy="1042.4" rx="165.2" ry="174.2"/>
<polygon class="st0" points="175.3,1224.6 335.3,1400.2 17.7,1394 "/>
<path class="st2" d="M336.6,1397.9L178,1221.3C178,1221.3,346.6,1240.7,336.6,1397.9z"/>
<path class="st2" d="M184.5,1221.3L17.8,1391.1C17.8,1391.1,10.8,1238,184.5,1221.3z"/>
<path class="st4" d="M336.6,1397.9l4.5-175.5l-156.7-1C184.5,1221.3,344.1,1244.6,336.6,1397.9z"/>
<path class="st4" d="M179.8,1219.4c0,0-160.2,18.5-157.7,171.9l1-175.6"/>
<ellipse transform="matrix(1.873410e-02 -0.9998 0.9998 1.873410e-02 -1224.4944 1548.5287)" class="st6" cx="176.7" cy="1398.1" rx="174.2" ry="165.2"/>
<path class="st1" d="M346.7,1391.9l-161.3,174.2C185.4,1566.1,173.7,1413.3,346.7,1391.9z"/>
<path class="st1" d="M183.4,1568L26.6,1390.5C26.6,1390.5,194.9,1410.9,183.4,1568z"/>
<path class="st1" d="M24.6,1743.2l160.7-174.7C185.3,1568.5,197.6,1721.3,24.6,1743.2z"/>
<path class="st1" d="M187.3,1566.6l157.5,177.1C344.8,1743.7,176.3,1723.8,187.3,1566.6z"/>
<path class="st3" d="M25.3,1413.1l-1.5,287.1c0,0,31.8-127.1,151.3-134c0,0-155.2-42.8-149.7-167.1"/>
<path class="st3" d="M344,1417.4l1.5,287.1c0,0-31.8-127.1-151.3-134c0,0,155.2-42.8,149.7-167.1"/>
<path class="st3" d="M18.6,1737.9l318.3,4.9c0,0-140.6-30.3-146.7-138.1c0,0-49.4,139.4-187.1,132.9"/>
<path class="st3" d="M347.5,1390.7l-318.4,1.1c0,0,141.3,27.6,149.9,135.2c0,0,46.1-140.3,184-136.5"/>
<path class="st5" d="M21.4,1393.1l159.2,175.8C180.6,1568.8,12,1550.3,21.4,1393.1z"/>
<path class="st5" d="M344.6,1740.4l-166.2-170.4C178.3,1569.9,347.6,1582.9,344.6,1740.4z"/>
<path class="st5" d="M177.1,1565.1l-154.8,179C22.3,1744.1,4.9,1591.8,177.1,1565.1z"/>
<path class="st5" d="M181.2,1566.8l160.4-175C341.5,1391.8,354.1,1544.5,181.2,1566.8z"/>
</svg>
