<?xml version="1.0" encoding="utf-8"?>
<!-- Generator: Adobe Illustrator 24.0.1, SVG Export Plug-In . SVG Version: 6.00 Build 0)  -->
<svg version="1.1" id="Layer_1" xmlns="http://www.w3.org/2000/svg" xmlns:xlink="http://www.w3.org/1999/xlink" x="0px" y="0px"
	 viewBox="0 0 1048.6 2233.8" style="enable-background:new 0 0 1048.6 2233.8;" xml:space="preserve">
<style type="text/css">
	.st0{fill:#5960AD;stroke:#F5F5F5;stroke-miterlimit:10;}
	.st1{fill:#F0D374;stroke:#F5F5F5;stroke-miterlimit:10;}
	.st2{fill:#74CDF0;stroke:#F5F5F5;stroke-miterlimit:10;}
	.st3{fill:#91C7F6;stroke:#F5F5F5;stroke-miterlimit:10;}
	.st4{fill:#415DE8;stroke:#F5F5F5;stroke-miterlimit:10;}
	.st5{fill:#EEEBB0;stroke:#F5F5F5;stroke-miterlimit:10;}
	.st6{fill:none;stroke:#F5F5F5;stroke-width:2;stroke-miterlimit:10;}
</style>
<polygon class="st0" points="721.4,-0.1 556.2,174.1 718.3,345.1 "/>
<polygon class="st0" points="879.8,521.7 1042.2,348.3 724.5,350.2 "/>
<path class="st1" d="M721.4-0.1l161.3,174.2C882.8,174.1,894.5,21.3,721.4-0.1z"/>
<path class="st1" d="M884.7,176L1041.6-1.5C1041.6-1.5,873.2,18.8,884.7,176z"/>
<path class="st1" d="M1043.5,351.2L882.8,176.5C882.8,176.5,870.6,329.3,1043.5,351.2z"/>
<path class="st1" d="M880.9,174.6L723.4,351.6C723.4,351.6,891.8,331.8,880.9,174.6z"/>
<path class="st2" d="M724,350.3l-164.3-172C559.7,178.4,550.6,331.3,724,350.3z"/>
<path class="st2" d="M560.9,177.1L719,0.4C719,0.4,550.5,19.8,560.9,177.1z"/>
<path class="st3" d="M1042.8,21l1.5,287.1c0,0-31.8-127.1-151.3-134c0,0,155.2-42.8,149.7-167.1"/>
<path class="st3" d="M724.2,25.3l-1.5,287.1c0,0,31.8-127.1,151.3-134c0,0-155.2-42.8-149.7-167.1"/>
<path class="st2" d="M1043.5,350.6L882.4,525.1C882.4,525.1,1051.2,508,1043.5,350.6z"/>
<path class="st2" d="M888.9,525.1l-164.3-172C724.6,353.2,715.5,506.1,888.9,525.1z"/>
<path class="st3" d="M1049.5,345.9l-318.3,4.9c0,0,140.6-30.3,146.7-138.1c0,0,49.4,139.4,187.1,132.9"/>
<path class="st3" d="M720.7-1.3L1039-0.2c0,0-141.3,27.6-149.9,135.2c0,0-46.1-140.3-184-136.5"/>
<path class="st4" d="M1043.5,350.6l2.1,175.5l-156.7-1.1C888.9,525.1,1048.8,504,1043.5,350.6z"/>
<path class="st4" d="M711.5,3.4c0,0-160.1,19.8-156.4,173.1L554.8,1"/>
<path class="st4" d="M884.2,527c0,0-160-20.7-155.3-174l-1.4,175.6"/>
<path class="st4" d="M717.2,353c0,0-160-20.7-155.3-174l-1.4,175.6"/>
<path class="st5" d="M1046.7,1L887.5,176.8C887.5,176.8,1056.1,158.3,1046.7,1z"/>
<path class="st5" d="M723.6,348.3l166.2-170.4C889.8,177.9,720.6,190.9,723.6,348.3z"/>
<path class="st5" d="M891.1,173.1l154.8,179C1045.8,352.1,1063.2,199.7,891.1,173.1z"/>
<path class="st5" d="M887,174.7L726.6-0.2C726.6-0.2,714.1,152.5,887,174.7z"/>
<ellipse class="st6" cx="883.5" cy="348.3" rx="165.2" ry="174.2"/>
<ellipse class="st6" cx="721.4" cy="174.1" rx="165.2" ry="174.2"/>
<polygon class="st0" points="890.4,530.6 730.4,706.1 1048,699.9 "/>
<path class="st2" d="M729.1,703.8l158.6-176.6C887.7,527.2,719.1,546.6,729.1,703.8z"/>
<path class="st2" d="M881.2,527.3L1047.9,697C1047.9,697,1054.9,544,881.2,527.3z"/>
<path class="st4" d="M729.1,703.8l-4.5-175.5l156.7-1C881.2,527.3,721.6,550.6,729.1,703.8z"/>
<path class="st4" d="M885.9,525.4c0,0,160.2,18.5,157.7,171.9l-1-175.6"/>
<ellipse transform="matrix(0.9998 -1.873425e-02 1.873425e-02 0.9998 -13.0331 16.7789)" class="st6" cx="889" cy="704" rx="165.2" ry="174.2"/>
<path class="st1" d="M719,697.8l161.3,174.2C880.3,872.1,892,719.3,719,697.8z"/>
<path class="st1" d="M882.2,874l156.9-177.5C1039.1,696.4,870.8,716.8,882.2,874z"/>
<path class="st1" d="M1041.1,1049.1L880.3,874.5C880.3,874.5,868.1,1027.2,1041.1,1049.1z"/>
<path class="st1" d="M878.4,872.6l-157.5,177.1C720.9,1049.6,889.4,1029.7,878.4,872.6z"/>
<path class="st3" d="M1040.3,719l1.5,287.1c0,0-31.8-127.1-151.3-134c0,0,155.2-42.8,149.7-167.1"/>
<path class="st3" d="M721.7,723.3l-1.5,287.1c0,0,31.8-127.1,151.3-134c0,0-155.2-42.8-149.7-167.1"/>
<path class="st3" d="M1047,1043.8l-318.3,4.9c0,0,140.6-30.3,146.7-138.1c0,0,49.4,139.4,187.1,132.9"/>
<path class="st3" d="M718.2,696.6l318.4,1.1c0,0-141.3,27.6-149.9,135.2c0,0-46.1-140.3-184-136.5"/>
<path class="st5" d="M1044.3,699L885.1,874.8C885.1,874.8,1053.7,856.2,1044.3,699z"/>
<path class="st5" d="M721.1,1046.3l166.2-170.4C887.4,875.9,718.1,888.8,721.1,1046.3z"/>
<path class="st5" d="M888.6,871.1l154.8,179C1043.4,1050.1,1060.8,897.7,888.6,871.1z"/>
<path class="st5" d="M884.5,872.7l-160.4-175C724.2,697.7,711.6,850.5,884.5,872.7z"/>
<polygon class="st0" points="550.3,184.2 365.3,6.9 372.4,359.6 "/>
<path class="st2" d="M367.8,5.4l186,175.8C553.7,181.2,533.1-5.9,367.8,5.4z"/>
<path class="st2" d="M553.7,174L375.5,359.5C375.5,359.5,536.4,366.9,553.7,174z"/>
<path class="st4" d="M367.8,5.4L552.4,0l1.4,174C553.7,174,528.9-3.1,367.8,5.4z"/>
<path class="st4" d="M555.7,179.2c0,0-19.2,178-180.5,175.4l184.6-1.5"/>
<ellipse transform="matrix(0.4684 -0.8835 0.8835 0.4684 33.8269 422.3138)" class="st6" cx="367.8" cy="183" rx="183.6" ry="183.1"/>
<path class="st1" d="M374-5.8l-183,179.5C191.1,173.7,351.8,186.4,374-5.8z"/>
<path class="st1" d="M189.1,175.8L376,349.7C376,349.7,354.4,162.8,189.1,175.8z"/>
<path class="st1" d="M5.1,352.5l183.4-178.8C188.6,173.7,27.9,160.4,5.1,352.5z"/>
<path class="st1" d="M190.6,171.6L4.1-3C4.1-3,25.3,184,190.6,171.6z"/>
<path class="st3" d="M352.3,351.1l-301.9,2.2c0,0,133.6-35.6,140.7-168.3c0,0,45.3,172.2,176,166"/>
<path class="st3" d="M347.3-2.7L45.4-3.9c0,0,133.8,35.1,141.2,167.8c0,0,44.7-172.4,175.5-166.6"/>
<path class="st3" d="M10.7,359.2L5,5.6c0,0,32.1,156.1,145.4,162.7c0,0-146.5,55.1-139.5,208.1"/>
<path class="st3" d="M375.3-6.7l-0.6,353.6c0,0-29.3-156.8-142.5-166.2c0,0,147.4-51.5,143.2-204.6"/>
<path class="st5" d="M373.4,355.5L188.2,178.9C188.2,178.9,208,366.2,373.4,355.5z"/>
<path class="st5" d="M7.6-2.8l179.5,184.3C187.1,181.5,173.2-6.4,7.6-2.8z"/>
<path class="st5" d="M192.2,182.9L4.2,355.1C4.2,355.1,164.4,374.1,192.2,182.9z"/>
<path class="st5" d="M190.4,178.3L374.2-0.1C374.2-0.1,213.5-13.7,190.4,178.3z"/>
<polygon class="st0" points="881.2,1215.8 1043.6,1042.4 726,1044.3 "/>
<path class="st2" d="M1044.9,1044.7l-161.1,174.4C883.8,1219.1,1052.7,1202.1,1044.9,1044.7z"/>
<path class="st2" d="M890.3,1219.2l-164.3-172C726,1047.2,716.9,1200.2,890.3,1219.2z"/>
<path class="st4" d="M1044.9,1044.7l2.1,175.5l-156.7-1.1C890.3,1219.2,1050.2,1198,1044.9,1044.7z"/>
<path class="st4" d="M885.6,1221c0,0-160-20.7-155.3-174l-1.4,175.6"/>
<ellipse class="st6" cx="885" cy="1042.4" rx="165.2" ry="174.2"/>
<polygon class="st0" points="891.8,1224.6 731.9,1400.2 1049.4,1394 "/>
<path class="st2" d="M730.5,1397.9l158.6-176.6C889.1,1221.3,720.6,1240.7,730.5,1397.9z"/>
<path class="st2" d="M882.7,1221.3l166.7,169.7C1049.3,1391.1,1056.3,1238,882.7,1221.3z"/>
<path class="st4" d="M730.5,1397.9l-4.5-175.5l156.7-1C882.7,1221.3,723.1,1244.6,730.5,1397.9z"/>
<path class="st4" d="M887.3,1219.4c0,0,160.2,18.5,157.7,171.9l-1-175.6"/>
<ellipse transform="matrix(0.9998 -1.873425e-02 1.873425e-02 0.9998 -26.0359 16.9276)" class="st6" cx="890.5" cy="1398.1" rx="165.2" ry="174.2"/>
<path class="st1" d="M720.4,1391.9l161.3,174.2C881.7,1566.1,893.5,1413.3,720.4,1391.9z"/>
<path class="st1" d="M883.7,1568l156.9-177.5C1040.5,1390.5,872.2,1410.9,883.7,1568z"/>
<path class="st1" d="M1042.5,1743.2l-160.7-174.7C881.8,1568.5,869.5,1721.3,1042.5,1743.2z"/>
<path class="st1" d="M879.9,1566.6l-157.5,177.1C722.4,1743.7,890.8,1723.8,879.9,1566.6z"/>
<path class="st3" d="M1041.8,1413.1l1.5,287.1c0,0-31.8-127.1-151.3-134c0,0,155.2-42.8,149.7-167.1"/>
<path class="st3" d="M723.2,1417.4l-1.5,287.1c0,0,31.8-127.1,151.3-134c0,0-155.2-42.8-149.7-167.1"/>
<path class="st3" d="M1048.5,1737.9l-318.3,4.9c0,0,140.6-30.3,146.7-138.1c0,0,49.4,139.4,187.1,132.9"/>
<path class="st3" d="M719.7,1390.7l318.4,1.1c0,0-141.3,27.6-149.9,135.2c0,0-46.1-140.3-184-136.5"/>
<path class="st5" d="M1045.7,1393.1l-159.2,175.8C886.5,1568.8,1055.1,1550.3,1045.7,1393.1z"/>
<path class="st5" d="M722.6,1740.4l166.2-170.4C888.8,1569.9,719.5,1582.9,722.6,1740.4z"/>
<path class="st5" d="M890,1565.1l154.8,179C1044.8,1744.1,1062.2,1591.8,890,1565.1z"/>
<path class="st5" d="M886,1566.8l-160.4-175C725.6,1391.8,713,1544.5,886,1566.8z"/>
</svg>
