<?xml version="1.0" encoding="utf-8"?>
<!-- Generator: Adobe Illustrator 24.0.1, SVG Export Plug-In . SVG Version: 6.00 Build 0)  -->
<svg version="1.1" xmlns="http://www.w3.org/2000/svg" xmlns:xlink="http://www.w3.org/1999/xlink" x="0px" y="0px"
	 viewBox="0 0 446.1 541.8" style="enable-background:new 0 0 446.1 541.8;" xml:space="preserve">
<style type="text/css">
	.st0{display:none;}
	.st1{display:inline;fill:#010101;stroke:#5A61AC;stroke-miterlimit:10;}
	.st2{display:inline;fill:#5A61AC;stroke:#010101;stroke-miterlimit:10;}
	.st3{display:inline;fill:#F0D474;stroke:#010101;stroke-miterlimit:10;}
	.st4{display:inline;fill:#96C6EA;stroke:#010101;stroke-miterlimit:10;}
	.st5{display:inline;fill:#75CCEE;stroke:#010101;stroke-miterlimit:10;}
	.st6{display:inline;fill:#4F62AD;stroke:#010101;stroke-miterlimit:10;}
	.st7{display:inline;fill:#EEEBB0;stroke:#010101;stroke-miterlimit:10;}
	.st8{display:inline;fill:none;stroke:#F5F6F6;stroke-width:2;stroke-miterlimit:10;}
	.st9{display:inline;fill:#5A61AC;}
	.st10{display:inline;fill:#F0D474;}
	.st11{display:inline;fill:#75CCEE;}
	.st12{display:inline;fill:#96C6EA;}
	.st13{display:inline;fill:#86A1D3;}
	.st14{display:inline;fill:#4F62AD;}
	.st15{display:inline;fill:#EEEBB0;}
	.st16{fill:#5A61AC;}
	.st17{fill:#F0D474;}
	.st18{fill:#75CCEE;}
	.st19{fill:#96C6EA;}
	.st20{fill:#4F62AD;}
	.st21{fill:#EEEBB0;}
	.st22{fill:none;stroke:#F5F6F6;stroke-width:2;stroke-miterlimit:10;}
</style>
<g id="Layer_2" class="st0">
	<rect x="0.9" y="1.9" class="st1" width="445.2" height="539.9"/>
</g>
<g id="Layer_1" class="st0">
	<polygon class="st2" points="684.3,-59.4 602.7,7.7 763.3,6.3 	"/>
	<polygon class="st2" points="682.8,208.5 764.9,141.8 604.2,142.5 	"/>
	<path class="st3" d="M602.7,7.7l81.6,67.1C684.3,74.7,690.2,15.9,602.7,7.7z"/>
	<path class="st3" d="M685.3,75.4l79.4-68.3C764.6,7.1,679.4,15,685.3,75.4z"/>
	<path class="st3" d="M765.6,142.9l-81.3-67.2C684.3,75.6,678.1,134.4,765.6,142.9z"/>
	<path class="st3" d="M683.3,74.9l-79.7,68.1C603.6,143.1,688.9,135.4,683.3,74.9z"/>
	<path class="st4" d="M765.2,15.8l0.8,110.5c0,0-16.1-48.9-76.5-51.6c0,0,78.5-16.5,75.8-64.3"/>
	<path class="st5" d="M601.7,8.1l80-68C681.6-59.9,596.4-52.4,601.7,8.1z"/>
	<path class="st5" d="M684.1-59.1L765.7,8C765.7,8,771.6-50.8,684.1-59.1z"/>
	<path class="st4" d="M604,17.5l-0.8,110.5c0,0,16.1-48.9,76.5-51.6c0,0-78.5-16.5-75.8-64.3"/>
	<path class="st5" d="M765.6,142.7l-81.5,67.1C684.1,209.8,769.5,203.2,765.6,142.7z"/>
	<path class="st5" d="M687.4,209.8l-83.1-66.2C604.3,143.6,599.6,202.5,687.4,209.8z"/>
	<path class="st4" d="M768.6,140.8l-161,1.9c0,0,71.1-11.7,74.2-53.1c0,0,25,53.6,94.7,51.2"/>
	<path class="st4" d="M602.3,7.2l161.1,0.4c0,0-71.5,10.6-75.8,52.1c0,0-23.3-54-93.1-52.5"/>
	<path class="st6" d="M765.6,142.7l1.1,67.6l-79.3-0.4C687.4,209.8,768.3,201.7,765.6,142.7z"/>
	<path class="st6" d="M681.2-58.8c0,0-81,7.6-79.1,66.6l-0.1-67.6"/>
	<path class="st6" d="M687.3-58.8c0,0,81,7.6,79.1,66.6l0.1-67.6"/>
	<path class="st6" d="M681.7,209.1c0,0-80.9-8-78.5-67l-0.7,67.6"/>
	<path class="st7" d="M767.2,8.1l-80.6,67.7C686.7,75.8,772,68.6,767.2,8.1z"/>
	<path class="st7" d="M603.7,141.8l84.1-65.6C687.8,76.2,602.2,81.2,603.7,141.8z"/>
	<path class="st7" d="M688.5,74.3l78.3,68.9C766.8,143.2,775.6,84.6,688.5,74.3z"/>
	<path class="st7" d="M686.4,75L605.3,7.6C605.3,7.6,598.9,66.4,686.4,75z"/>
	<line class="st8" x1="522" y1="-59.4" x2="847.3" y2="208.8"/>
	<line class="st8" x1="847.3" y1="-59.4" x2="522" y2="208.8"/>
	<polygon class="st8" points="684.7,-59.4 522,74.7 684.7,210.2 845.3,74.7 	"/>
	<line class="st8" x1="763.3" y1="-59.4" x2="767.6" y2="208.8"/>
	<line class="st8" x1="601.8" y1="-59.4" x2="603.3" y2="208.8"/>
	<line class="st8" x1="522" y1="7.8" x2="847.3" y2="7.8"/>
	<line class="st8" x1="847.3" y1="142.4" x2="519.8" y2="142.4"/>
	<ellipse class="st8" cx="684.3" cy="7.7" rx="81.6" ry="67.1"/>
	<ellipse class="st8" cx="684.7" cy="141.8" rx="83.6" ry="67.1"/>
	<ellipse class="st8" cx="766" cy="75.1" rx="83.5" ry="67.1"/>
	<ellipse class="st8" cx="602.7" cy="74.7" rx="83.6" ry="67.1"/>
</g>
<g id="Layer_3" class="st0">
	<polygon class="st9" points="114.6,137.2 0.9,270.9 112.5,402.3 	"/>
	<polygon class="st10" points="446.3,541.4 336.7,407.5 337.8,541.3 	"/>
	<polygon class="st10" points="442.9,3.5 334.4,138.3 334.4,4.5 	"/>
	<path class="st11" d="M117.3,138.1L226.1,2.5C226.1,2.5,110.1,17.4,117.3,138.1z"/>
	<path class="st11" d="M336.4,406.5L225.5,540.4C225.5,540.4,341.7,527.3,336.4,406.5z"/>
	<path class="st12" d="M339.5,404.8l-219.2,3.8c0,0,96.8-23.3,101-106c0,0,34,107,128.8,102.1"/>
	<polygon class="st13" points="114.7,136.1 7.2,134.7 4.9,5.8 	"/>
	<path class="st14" d="M341.9,137.3c0,0,110.2,15.2,107.7,132.9l0.2-134.8"/>
	<path class="st14" d="M221.5,540.6c0,0-110.1-15.9-106.9-133.6l-1,134.8"/>
	<path class="st15" d="M116.1,398.7l114.4-130.9C230.6,267.9,114,277.8,116.1,398.7z"/>
	<rect x="4.9" y="3.4" class="st8" width="442.5" height="535"/>
	<line class="st8" x1="447.5" y1="3.4" x2="4.9" y2="538.4"/>
	<polygon class="st8" points="226.2,3.4 4.9,270.9 226.2,541.2 444.8,270.9 	"/>
	<line class="st8" x1="333.3" y1="3.4" x2="339" y2="538.4"/>
	<line class="st8" x1="113.4" y1="3.4" x2="115.6" y2="538.4"/>
	<line class="st8" x1="4.9" y1="137.5" x2="447.5" y2="137.5"/>
	<line class="st8" x1="447.5" y1="406" x2="2" y2="406"/>
	<ellipse class="st8" cx="225.7" cy="137.2" rx="111" ry="133.8"/>
	<ellipse class="st8" cx="226.2" cy="404.7" rx="113.7" ry="133.8"/>
	<ellipse class="st8" cx="336.9" cy="271.8" rx="113.6" ry="133.8"/>
	<ellipse class="st8" cx="114.6" cy="270.9" rx="113.7" ry="133.8"/>
</g>
<g id="_x34_" class="st0">
	<polygon class="st9" points="222,2 110.3,137 330.2,134.3 	"/>
	<path class="st10" d="M110.3,137L222,272C222,272,230.1,153.6,110.3,137z"/>
	<polygon class="st10" points="0,545 110.2,409.9 109.1,544.9 	"/>
	<path class="st11" d="M443.7,273L332.1,408.2C332.1,408.2,449,394.9,443.7,273z"/>
	<path class="st11" d="M-0.9,274.3l109.5-136.9C108.6,137.4-8.1,152.5-0.9,274.3z"/>
	<polygon class="st13" points="336,135.5 444.1,137.3 450.2,7.3 	"/>
	<path class="st11" d="M226.2,544.1L112.5,410.8C112.5,410.8,106.1,529.3,226.2,544.1z"/>
	<path class="st12" d="M109.7,136.1l220.5,0.9c0,0-97.8,21.4-103.8,104.8c0,0-31.9-108.7-127.4-105.8"/>
	<path class="st14" d="M333.3,408.8l1.4,136l-108.5-0.8C226.2,544.1,336.9,527.7,333.3,408.8z"/>
	<path class="st14" d="M226.1,3.1c0,0,110.9,15.3,108.3,134.2l0.2-136.1"/>
	<rect x="-0.1" y="2" class="st8" width="445.1" height="540"/>
	<line class="st8" x1="-0.1" y1="2" x2="445.1" y2="542"/>
	<line class="st8" x1="445.1" y1="2" x2="-0.1" y2="542"/>
	<polygon class="st8" points="222.5,2 -0.1,272 222.5,544.8 442.3,272 	"/>
	<line class="st8" x1="330.2" y1="2" x2="336" y2="542"/>
	<line class="st8" x1="109" y1="2" x2="111.2" y2="542"/>
	<line class="st8" x1="-0.1" y1="137.4" x2="445.1" y2="137.4"/>
	<line class="st8" x1="445.1" y1="408.3" x2="-3.1" y2="408.3"/>
	<ellipse class="st8" cx="222" cy="137" rx="111.6" ry="135"/>
	<ellipse class="st8" cx="222.5" cy="407" rx="114.4" ry="135"/>
	<ellipse class="st8" cx="333.9" cy="272.8" rx="114.3" ry="135"/>
	<ellipse class="st8" cx="110.3" cy="272" rx="114.4" ry="135"/>
</g>
<g id="_x33_" class="st0">
	<polygon class="st3" points="1.6,0 112,134.8 110.8,0 	"/>
	<polygon class="st9" points="221.7,538.5 334.2,404.3 114.1,405.8 	"/>
	<path class="st10" d="M225.1,271l108.7-137.3C333.8,133.7,217.1,149.4,225.1,271z"/>
	<path class="st11" d="M113.7,405.9L0,272.9C0,272.9-6.4,391.2,113.7,405.9z"/>
	<path class="st12" d="M334.6,151.1l1.1,222.1c0,0-22.1-98.3-104.8-103.7c0,0,107.5-33.1,103.7-129.2"/>
	<polygon class="st13" points="109.8,401.9 1.7,405.2 1.7,535.2 	"/>
	<path class="st14" d="M105.1,137.5c0,0-110.9,15.3-108.4,133.9l-0.2-135.8"/>
	<path class="st14" d="M340.7,406.7c0,0,110.5-18,105.1-136.6l3.4,135.8"/>
	<polygon class="st13" points="336.5,405.4 444.6,408.7 444.6,538.7 	"/>
	<path class="st15" d="M229.5,268.8l107.2,138.5C336.7,407.3,348.8,289.4,229.5,268.8z"/>
	<path class="st15" d="M226.7,270L115.6,134.7C115.6,134.7,106.9,252.8,226.7,270z"/>
	<rect x="1.6" y="0" class="st8" width="445.3" height="539.1"/>
	<line class="st8" x1="1.6" y1="0" x2="446.9" y2="539.1"/>
	<line class="st8" x1="446.9" y1="0" x2="1.6" y2="539.1"/>
	<polygon class="st8" points="224.3,0 1.6,269.5 224.3,541.8 444.2,269.5 	"/>
	<line class="st8" x1="332" y1="0" x2="337.8" y2="539.1"/>
	<line class="st8" x1="110.8" y1="0" x2="113" y2="539.1"/>
	<line class="st8" x1="1.6" y1="135.2" x2="446.9" y2="135.2"/>
	<line class="st8" x1="446.9" y1="405.7" x2="-1.4" y2="405.7"/>
	<ellipse class="st8" cx="223.8" cy="134.8" rx="111.7" ry="134.8"/>
	<ellipse class="st8" cx="224.3" cy="404.3" rx="114.4" ry="134.8"/>
	<ellipse class="st8" cx="335.7" cy="270.4" rx="114.3" ry="134.8"/>
	<ellipse class="st8" cx="112" cy="269.6" rx="114.4" ry="134.8"/>
</g>
<g id="_x32_">
	<polygon class="st16" points="113.5,136.6 0.9,270.8 111.4,402.5 	"/>
	<polygon class="st16" points="336.6,142.1 335.7,401.9 433.9,270.8 	"/>
	<path class="st17" d="M333,407.2L223.5,272.6C223.5,272.6,215.1,390.3,333,407.2z"/>
	<path class="st17" d="M222.2,271.2L114.8,407.5C114.8,407.5,229.6,392.2,222.2,271.2z"/>
	<path class="st18" d="M332.6,136.6l110,134.2C442.5,270.8,450.5,153.1,332.6,136.6z"/>
	<path class="st18" d="M223.2,3.1l110,134.2C333.1,137.3,341.1,19.6,223.2,3.1z"/>
	<path class="st19" d="M115.4,156.2l-1,221.1c0,0,21.7-97.9,103.1-103.2c0,0-105.8-32.9-102.1-128.7"/>
	<path class="st20" d="M219.3,3.7c0,0-109.1,15.2-106.6,133.3L112.5,1.9"/>
	<path class="st20" d="M110.6,408.6c0,0-109-15.9-105.8-134l-1,135.2"/>
	<path class="st21" d="M335.2,137.5L226.7,272.9C226.7,272.9,341.6,258.6,335.2,137.5z"/>
	<rect x="4.9" y="2.5" class="st22" width="438.1" height="536.6"/>
	<line class="st22" x1="4.9" y1="2.5" x2="443" y2="539.1"/>
	<line class="st22" x1="443" y1="2.5" x2="4.9" y2="539.1"/>
	<polygon class="st22" points="224,2.5 4.9,270.8 224,541.8 440.4,270.8 	"/>
	<line class="st22" x1="330" y1="2.5" x2="335.7" y2="539.1"/>
	<line class="st22" x1="112.3" y1="2.5" x2="114.4" y2="539.1"/>
	<line class="st22" x1="4.9" y1="137" x2="443" y2="137"/>
	<line class="st22" x1="443" y1="406.3" x2="1.9" y2="406.3"/>
	<ellipse class="st22" cx="223.5" cy="136.6" rx="109.9" ry="134.2"/>
	<ellipse class="st22" cx="224" cy="404.9" rx="112.6" ry="134.2"/>
	<ellipse class="st22" cx="333.6" cy="271.6" rx="112.5" ry="134.2"/>
	<ellipse class="st22" cx="113.5" cy="270.8" rx="112.6" ry="134.2"/>
</g>
</svg>
