<?xml version="1.0" encoding="utf-8"?>
<!-- Generator: Adobe Illustrator 24.0.1, SVG Export Plug-In . SVG Version: 6.00 Build 0)  -->
<svg version="1.1" xmlns="http://www.w3.org/2000/svg" xmlns:xlink="http://www.w3.org/1999/xlink" x="0px" y="0px"
	 viewBox="0 0 476 566.9" style="enable-background:new 0 0 476 566.9;" xml:space="preserve">
<style type="text/css">
	.st0{fill:#5960AD;stroke:#000000;stroke-miterlimit:10;}
	.st1{fill:#F0D374;stroke:#000000;stroke-miterlimit:10;}
	.st2{fill:#74CDF0;stroke:#000000;stroke-miterlimit:10;}
	.st3{fill:#91C7F6;stroke:#000000;stroke-miterlimit:10;}
	.st4{fill:#7DA4F8;stroke:#000000;stroke-miterlimit:10;}
	.st5{fill:#415DE8;stroke:#000000;stroke-miterlimit:10;}
	.st6{fill:#EEEBB0;stroke:#000000;stroke-miterlimit:10;}
	.st7{fill:none;stroke:#231F20;stroke-width:2;stroke-miterlimit:10;}
</style>
<g id="Layer_2">
	<polygon class="st0" points="120.9,141.8 1,282 118.6,419.7 	"/>
	<polygon class="st0" points="358.4,147.5 357.4,419 462,282 	"/>
	<polygon class="st1" points="5.3,1.6 120.9,141.8 119.6,1.6 	"/>
	<polygon class="st0" points="238,1.6 120.9,141.8 351.4,139 	"/>
	<polygon class="st0" points="235.8,561.8 353.6,422.2 123.1,423.8 	"/>
	<path class="st1" d="M120.9,141.8L238,282C238,282,246.5,159,120.9,141.8z"/>
	<path class="st1" d="M239.4,283.5l113.8-142.9C353.2,140.7,231,157.1,239.4,283.5z"/>
	<polygon class="st1" points="470.5,565.5 355,425.2 356.1,565.4 	"/>
	<path class="st1" d="M354.6,424.5L238,283.9C238,283.9,229.1,406.9,354.6,424.5z"/>
	<path class="st1" d="M236.6,282.4L122.3,424.9C122.3,424.9,244.5,408.9,236.6,282.4z"/>
	<path class="st2" d="M354.1,141.8L471.2,282C471.2,282,479.7,159,354.1,141.8z"/>
	<polygon class="st1" points="5.3,565.5 120.8,425.2 119.7,565.4 	"/>
	<polygon class="st1" points="466.9,1.7 352.6,143 352.5,2.7 	"/>
	<path class="st2" d="M470.3,283.1L353.4,423.4C353.4,423.4,475.9,409.7,470.3,283.1z"/>
	<path class="st2" d="M122.7,423.9L3.5,285.5C3.5,285.5-3.1,408.5,122.7,423.9z"/>
	<path class="st2" d="M4.4,284.4l114.7-142.2C119.1,142.2-3.1,157.9,4.4,284.4z"/>
	<path class="st3" d="M354.1,158.8l1.1,231c0,0-23.1-102.3-109.8-107.8c0,0,112.6-34.4,108.7-134.5"/>
	<path class="st2" d="M119.5,142.8L234.2,0.6C234.2,0.6,111.9,16.2,119.5,142.8z"/>
	<path class="st2" d="M237.7,2.2l117.1,140.2C354.7,142.4,363.2,19.5,237.7,2.2z"/>
	<polygon class="st4" points="118.6,419.7 5.3,423.1 5.3,558.4 	"/>
	<polygon class="st4" points="357.4,140.2 470.8,142.2 477.2,7.1 	"/>
	<path class="st3" d="M122.9,162.3l-1.1,231c0,0,23.1-102.3,109.8-107.8c0,0-112.6-34.4-108.7-134.5"/>
	<path class="st2" d="M354.6,424.1L237.7,564.5C237.7,564.5,360.2,550.7,354.6,424.1z"/>
	<path class="st2" d="M242.4,564.5L123.2,426.1C123.2,426.1,116.6,549.2,242.4,564.5z"/>
	<path class="st3" d="M359,420.3l-231,4c0,0,102-24.4,106.5-111.1c0,0,35.8,112.2,135.8,107"/>
	<path class="st3" d="M120.4,140.8l231,0.9c0,0-102.5,22.2-108.8,108.8c0,0-33.5-112.9-133.5-109.8"/>
	<path class="st5" d="M354.6,424.1l1.5,141.3l-113.7-0.9C242.4,564.5,358.4,547.5,354.6,424.1z"/>
	<path class="st5" d="M233.5,2.9c0,0-116.2,15.9-113.5,139.4L119.8,1"/>
	<path class="st5" d="M113.7,144.6c0,0-116.2,15.9-113.5,139.4L0,142.7"/>
	<path class="st5" d="M360.5,424.7c0,0,115.8-18.7,110.1-142.1l3.6,141.3"/>
	<polygon class="st4" points="356.1,423.3 469.4,426.8 469.4,562 	"/>
	<polygon class="st4" points="121,140.7 7.6,139.2 5.2,4 	"/>
	<path class="st5" d="M242.3,2.8c0,0,116.2,15.9,113.5,139.4L356,0.8"/>
	<path class="st5" d="M360.5,137.7c0,0,116.2,15.9,113.5,139.4l0.2-141.3"/>
	<path class="st5" d="M239,573.8c0,0-116.1-16.6-112.7-140l-1,141.3"/>
	<path class="st5" d="M117.8,426c0,0-116.1-16.6-112.7-140l-1,141.3"/>
	<path class="st6" d="M357,142.7L241.4,284.2C241.4,284.2,363.8,269.3,357,142.7z"/>
	<path class="st6" d="M122.5,422.3l120.6-137.2C243.1,285.1,120.3,295.5,122.5,422.3z"/>
	<path class="st6" d="M244,281.2l112.3,144.1C356.3,425.3,368.9,302.7,244,281.2z"/>
	<path class="st6" d="M241,282.5L124.7,141.7C124.7,141.7,115.5,264.6,241,282.5z"/>
</g>
<g id="Layer_1">
	<title>template_sqaure1</title>
	<rect x="5.3" y="1.6" class="st7" width="466.5" height="560.8"/>
	<line class="st7" x1="5.3" y1="1.6" x2="471.8" y2="562.4"/>
	<line class="st7" x1="471.8" y1="1.6" x2="5.3" y2="562.4"/>
	<polygon class="st7" points="238.5,1.6 5.3,282 238.5,565.3 468.9,282 	"/>
	<line class="st7" x1="351.4" y1="1.6" x2="357.4" y2="562.4"/>
	<line class="st7" x1="119.6" y1="1.6" x2="121.9" y2="562.4"/>
	<line class="st7" x1="5.3" y1="142.2" x2="471.8" y2="142.2"/>
	<line class="st7" x1="471.8" y1="423.6" x2="2.1" y2="423.6"/>
	<ellipse class="st7" cx="238" cy="141.8" rx="117" ry="140.2"/>
	<ellipse class="st7" cx="238.5" cy="422.2" rx="119.9" ry="140.2"/>
	<ellipse class="st7" cx="355.2" cy="282.9" rx="119.8" ry="140.2"/>
	<ellipse class="st7" cx="120.9" cy="282" rx="119.9" ry="140.2"/>
</g>
</svg>
