<svg id="Layer_2" data-name="Layer 2" xmlns="http://www.w3.org/2000/svg" xmlns:xlink="http://www.w3.org/1999/xlink" viewBox="0 0 160.39 48.08"><defs><style>.cls-1{fill:#355ad1;}.cls-2{fill:#4364e8;}.cls-3{fill:#fffcff;}.cls-4{fill:#fff;}.cls-5{fill:url(#linear-gradient);}.cls-6{fill:#ff9f0d;}.cls-7{fill:#d60a31;}.cls-8{fill:#dd222a;}.cls-9{fill:#5a5a5a;}</style><linearGradient id="linear-gradient" x1="172.24" y1="168.43" x2="184.58" y2="168.43" gradientUnits="userSpaceOnUse"><stop offset="0.35" stop-color="#12a31d"/><stop offset="0.62" stop-color="#97dd9a"/><stop offset="1" stop-color="#12a31d"/></linearGradient></defs><title>google+logo</title><path class="cls-1" d="M91.21,160.09l.57-1.23a11.44,11.44,0,0,0-4.92-3.61c-2.87-.9-8.61-2-12.63,1.48s-5.14,6.39-5.14,6.39-1.84,5.91-.28,9.93S71.6,180.43,77,183.3a19.5,19.5,0,0,0,10.66,2.19,20.14,20.14,0,0,0,3.36-.63v-7H84.15s1.89-2.54,3.61-2.46,9.11-.08,9.11-.08,1.12-.35.66.57a1.4,1.4,0,0,1-1.33.84l.13,8.67a85.44,85.44,0,0,1-8.46,2c-2.29.25-9.36,1.88-16-2.66s-8.21-10.15-8.21-12.41.15-8.61,2.56-11.61,5.84-6.3,10.69-7.35a24.9,24.9,0,0,1,14.2.59c5.28,1.73,5,2.44,5,2.44s-3.21,3.55-3.77,3.89S91.52,160.87,91.21,160.09Z" transform="translate(-63.69 -151.67)"/><path class="cls-2" d="M171.59,164.27H158.88c-.61.15-5.6,1.47-6.41,5.63a10.63,10.63,0,0,0,.91,7.21.25.25,0,0,0,.08.1,10,10,0,0,0,6.55,3,.57.57,0,0,1,.57.61c-.09,1-.2,2.67.18,2.94.53.38,1.59,1.18,1.59,1.18s-7-.27-8.9,2c0,0-2.84,1.93-3.18,3.41a20.25,20.25,0,0,0,0,4.72.43.43,0,0,0,0,.11,5.84,5.84,0,0,0,5.05,3.88c2.09.26,5.68,1.67,11.14-.72S171.4,194,171.4,194l.18-5.8a.52.52,0,0,0-.1-.34c-.45-.65-2.32-3.2-4.13-3.9A4.76,4.76,0,0,1,165,182.4a.46.46,0,0,1-.09-.3v-1.92a.52.52,0,0,1,.17-.4c.75-.71,3.76-3.58,4.48-4.53s.3-4.82.21-5.5a.48.48,0,0,0-.07-.2c-.24-.42-1.26-2.16-1.73-2.33s-.34-1.67.15-1.7l3-.19S173.33,165.33,171.59,164.27Z" transform="translate(-63.69 -151.67)"/><ellipse class="cls-3" cx="161.31" cy="172.53" rx="5.28" ry="6.76" transform="translate(-112.49 -87.03) rotate(-19.74)"/><ellipse class="cls-4" cx="97.49" cy="40.39" rx="7.54" ry="5.89"/><path class="cls-5" d="M176,153.68V183.4h-1s-1.06,1.41,0,1.68,8.29,0,8.29,0l1-1.24.42-.42-3.76,0-.33-29.71h1.43l.06-2h-6.49l-2.57,1.61-.68.57Z" transform="translate(-63.69 -151.67)"/><circle class="cls-6" cx="73.94" cy="22.44" r="11.62"/><circle class="cls-7" cx="47.74" cy="22.88" r="11.62"/><ellipse class="cls-4" cx="111.59" cy="174.55" rx="6.98" ry="9.55" transform="translate(-101.28 -120.87) rotate(-13.47)"/><ellipse class="cls-4" cx="137.63" cy="174.11" rx="6.98" ry="9.55" transform="translate(-100.46 -114.82) rotate(-13.47)"/><path class="cls-8" d="M190.59,175l13.11-5.32s1.11-2.39-2.39-4.61-8.81-2.14-10.72-.79-4.92,4-5.24,7.7-.32,8.1,3.42,11.36,11.35,1.87,11.35,1.87a6.11,6.11,0,0,0,3-1.45c1.47-1.28,1.88-1.69,1.88-1.69l-2,.19s-1.3,1.08-1.81,1.08-5.07,1.15-8.48-2.77S190.59,175,190.59,175Z" transform="translate(-63.69 -151.67)"/><path class="cls-4" d="M190.3,172.69l8.53-3s.74-1.4,0-2.2a5.14,5.14,0,0,0-6.3-1,5.52,5.52,0,0,0-2.84,5.1C189.66,171.9,190.3,172.69,190.3,172.69Z" transform="translate(-63.69 -151.67)"/><rect class="cls-9" x="145.12" y="19.22" width="15.27" height="2.49"/></svg>