<?xml version="1.0" encoding="utf-8"?>
<!-- Generator: Adobe Illustrator 22.1.0, SVG Export Plug-In . SVG Version: 6.00 Build 0)  -->
<svg version="1.1" id="Layer_1" xmlns="http://www.w3.org/2000/svg" xmlns:xlink="http://www.w3.org/1999/xlink" x="0px" y="0px"
	 viewBox="0 0 282.8 282.7" style="enable-background:new 0 0 282.8 282.7;" xml:space="preserve">
<style type="text/css">
	.st0{fill:#FFFFFF;}
	.st1{fill:#657BB5;}
</style>
<g>
	<path class="st0" d="M53.2,252.8c-6.5,0-13.1,0-19.6,0c0-81.8,0-163.6,0-245.8c49.9,0,99.8,0,149.6,0c-1.7,2.5-4.4,4.9-4.9,7.7
		c-0.8,4.5-0.4,9.4-0.2,14c0.3,4.8,3.5,8,7.5,7.4c4.4-0.5,6.6-3.2,6.6-7.8c-0.1-4-0.2-8,0.1-11.9c0.3-4.2-1.1-7.3-4.7-9.5
		c30.5,0,61.1,0,91.7,0c0,81.9,0,163.8,0,245.8c-15.6,0-31.3,0-46.9,0c8.4-2.8,15.1-7.5,16.9-16.7c0.8-4.1,0.1-8.5,0.1-12.9
		c14.7-6.1,19.6-21.3,9.9-35.4c6.9-9.5,6.7-19.1-0.1-28.7c5.9-8,7.1-16.5,2.2-25.1c-5-8.8-13.3-11.1-22.8-10.7
		c-5.5,0.2-10.9,0-16.4,0c-6.9,0-13.7,0-19.7,0c1.5-13.9,3.7-27.2,4.1-40.5c0.6-20.6-11.4-32.1-31.9-32.1c-8.2,0-9.6,0.9-11.5,9.2
		c-3.7,16.1-8.8,31.5-19.4,44.5c-6.6,8-14,15.2-24.7,18c-5.2-10.9-14.2-14-25.3-13.7c-11.8,0.3-23.7,0-35.5,0.1
		c-7.2,0-9.5,2.3-9.6,9.4c0,41.7,0,83.4-0.1,125C48.5,247.4,49.7,250.5,53.2,252.8z M238.9,33.1c-1.8-2.1-3.1-4.9-5.1-5.6
		c-2.1-0.7-5.5-0.2-7.3,1.2c-3.9,2.9-7.1,6.7-10.5,10.2c-3.1,3.3-3.2,7,0.1,10.1c3.2,3.1,6.9,2.7,10.2-0.3c3.3-3.1,6.5-6.3,9.5-9.6
		C236.9,37.5,237.5,35.6,238.9,33.1z M150.1,51.7c2-1.6,4.8-2.9,5.6-5c0.8-2.1,0.4-5.6-0.9-7.4c-2.9-3.9-6.7-7.1-10.2-10.5
		c-3.2-3.1-6.9-3.4-10.1-0.1c-3.2,3.2-2.9,6.9,0.1,10.1c3.2,3.4,6.5,6.8,10,9.9C145.8,49.9,147.6,50.4,150.1,51.7z"/>
	<path class="st1" d="M53.2,252.8c-3.4-2.3-4.7-5.4-4.7-9.6c0.1-41.7,0.1-83.4,0.1-125c0-7,2.4-9.4,9.6-9.4
		c11.8,0,23.7,0.2,35.5-0.1c11.1-0.3,20.1,2.9,25.3,13.7c10.7-2.9,18.1-10,24.7-18c10.7-13,15.8-28.4,19.4-44.5
		c1.9-8.3,3.3-9.2,11.5-9.2c20.5,0,32.6,11.5,31.9,32.1c-0.4,13.3-2.6,26.6-4.1,40.5c6,0,12.8,0,19.7,0c5.5,0,10.9,0.2,16.4,0
		c9.5-0.4,17.9,1.9,22.8,10.7c4.9,8.6,3.7,17.1-2.2,25.1c6.9,9.6,7,19.2,0.1,28.7c9.7,14.1,4.9,29.3-9.9,35.4
		c0,4.3,0.7,8.7-0.1,12.9c-1.8,9.2-8.5,13.9-16.9,16.7c-24,0-48.1,0-72.1,0c-13.9-3.9-27.8-7.8-42.1-11.7
		c-3.3,6.1-8.9,9.8-15.8,11.7C85.9,252.8,69.5,252.8,53.2,252.8z M120.2,181.3c0,10.2,0,20.4,0,30.6c0,14.1-0.1,14.5,13.5,18.5
		c10.9,3.2,22,7,33.2,7.8c19.8,1.3,39.7,0.3,59.5,0.4c4.7,0,8.5-1.4,9.1-6.5c0.6-5.2-2.7-7.6-7.4-8.2c-4.5-0.6-7-3.2-6.6-7.7
		c0.4-4.7,3.7-6.3,8.1-6.3c4.4,0,8.8,0.2,13.1-0.1c4.3-0.3,7.2-2.5,7.2-7.3c0.1-4.3-2.9-7.2-7.7-7.4c-4.2-0.2-8.4-0.1-12.6,0
		c-4.6,0.1-7.8-1.8-8.2-6.7c-0.4-4.4,2.9-7.3,8.1-7.5c4.2-0.1,8.4,0.1,12.6-0.1c5-0.2,7.8-2.8,7.8-7.2c0-4.4-2.8-7-7.8-7.1
		c-4.2-0.1-8.4,0.1-12.6-0.1c-5.2-0.2-8.5-3.2-8.1-7.6c0.4-5,3.5-6.8,8.2-6.7c4.2,0.1,8.4,0.2,12.6,0c4.6-0.2,7.7-2.4,7.7-7.3
		c0-5-3.2-7-7.7-7.4c-1.4-0.1-2.9,0-4.4,0c-21.8,0-43.7,0-65.5,0c-5.5,0-8.6-2.7-8.7-6.9c0-4.2,3.2-6.9,8.6-7.1
		c3.3-0.1,6.6,0.3,9.8-0.2c1.7-0.3,4.1-1.7,4.6-3.2c4.6-13.4,6.5-27.2,5.8-41.3c-0.4-6.6-4.1-11.1-10.6-13.1
		c-3.4-1.1-5.2-0.9-6.6,3.5c-3.3,10.5-6.6,21.3-11.8,30.9c-9.1,16.8-21.2,30.8-40.7,36.5c-1.2,0.4-2.4,3.3-2.4,5.1
		C120.1,154.7,120.2,168,120.2,181.3z M63,238.5c11.3,0,22,0,32.7,0c8.1,0,10.4-2.2,10.4-10.3c0-16,0-32,0-48
		c0-15.8,0.1-31.6,0-47.5c0-7.3-2.6-9.7-10-9.7c-4.9,0-9.8,0-14.7,0c-6.1,0-12.2,0-18.4,0C63,161.8,63,199.8,63,238.5z"/>
	<path class="st1" d="M187.5,7c3.6,2.2,5,5.3,4.7,9.5c-0.3,4-0.1,7.9-0.1,11.9c0.1,4.6-2.2,7.2-6.6,7.8c-4,0.5-7.3-2.6-7.5-7.4
		c-0.2-4.7-0.7-9.5,0.2-14c0.5-2.8,3.2-5.1,4.9-7.7C184.6,7,186.1,7,187.5,7z"/>
	<path class="st0" d="M102.3,252.8c6.9-2,12.5-5.7,15.8-11.7c14.3,4,28.2,7.9,42.1,11.7C140.9,252.8,121.6,252.8,102.3,252.8z"/>
	<path class="st1" d="M238.9,33.1c-1.3,2.5-1.9,4.5-3.2,5.9c-3,3.4-6.3,6.5-9.5,9.6c-3.2,3.1-6.9,3.4-10.2,0.3
		c-3.2-3.1-3.2-6.8-0.1-10.1c3.4-3.5,6.6-7.3,10.5-10.2c1.8-1.4,5.2-1.9,7.3-1.2C235.8,28.2,237.1,31,238.9,33.1z"/>
	<path class="st1" d="M150.1,51.7c-2.4-1.2-4.2-1.8-5.5-2.9c-3.5-3.2-6.8-6.5-10-9.9c-3.1-3.2-3.3-6.9-0.1-10.1
		c3.2-3.3,6.8-3,10.1,0.1c3.5,3.4,7.3,6.6,10.2,10.5c1.3,1.8,1.7,5.3,0.9,7.4C154.9,48.8,152,50,150.1,51.7z"/>
	<path class="st0" d="M120.2,181.3c0-13.3-0.1-26.6,0.1-39.9c0-1.8,1.2-4.7,2.4-5.1c19.5-5.7,31.6-19.7,40.7-36.5
		c5.2-9.6,8.5-20.4,11.8-30.9c1.4-4.3,3.2-4.6,6.6-3.5c6.4,2.1,10.2,6.6,10.6,13.1c0.8,14.1-1.2,27.9-5.8,41.3
		c-0.5,1.5-2.9,2.9-4.6,3.2c-3.2,0.5-6.5,0.1-9.8,0.2c-5.4,0.2-8.7,2.9-8.6,7.1c0,4.3,3.2,6.9,8.7,6.9c21.8,0,43.7,0,65.5,0
		c1.5,0,2.9-0.1,4.4,0c4.5,0.4,7.7,2.4,7.7,7.4c0,5-3.2,7.1-7.7,7.3c-4.2,0.2-8.4,0.1-12.6,0c-4.7-0.1-7.8,1.7-8.2,6.7
		c-0.3,4.3,3,7.4,8.1,7.6c4.2,0.2,8.4,0,12.6,0.1c5,0.1,7.8,2.7,7.8,7.1c0,4.4-2.8,7-7.8,7.2c-4.2,0.1-8.4-0.1-12.6,0.1
		c-5.3,0.2-8.5,3.1-8.1,7.5c0.4,5,3.6,6.8,8.2,6.7c4.2-0.1,8.4-0.1,12.6,0c4.8,0.2,7.8,3,7.7,7.4c-0.1,4.7-3,6.9-7.2,7.3
		c-4.3,0.3-8.7,0.1-13.1,0.1c-4.4,0-7.6,1.6-8.1,6.3c-0.4,4.5,2.1,7.1,6.6,7.7c4.8,0.7,8,3,7.4,8.2c-0.6,5.1-4.4,6.6-9.1,6.5
		c-19.8-0.1-39.7,0.9-59.5-0.4c-11.2-0.7-22.3-4.5-33.2-7.8c-13.6-4-13.5-4.4-13.5-18.5C120.2,201.7,120.2,191.5,120.2,181.3z"/>
	<path class="st0" d="M63,238.5c0-38.7,0-76.7,0-115.5c6.2,0,12.3,0,18.4,0c4.9,0,9.8,0,14.7,0c7.4,0,9.9,2.4,10,9.7
		c0.1,15.8,0,31.6,0,47.5c0,16,0,32,0,48c0,8.1-2.3,10.3-10.4,10.3C85,238.5,74.3,238.5,63,238.5z M91.4,215.9
		c-0.4-3.4-2.6-5.8-6.9-6c-4.2-0.2-7.6,3-7.3,7c0.3,4.1,2.6,6.6,6.9,6.8C88.3,223.9,91.4,220.7,91.4,215.9z"/>
	<path class="st1" d="M91.4,215.9c0,4.8-3.1,7.9-7.2,7.8c-4.3-0.2-6.6-2.7-6.9-6.8c-0.3-4,3.1-7.1,7.3-7
		C88.8,210.1,91,212.5,91.4,215.9z"/>
</g>
</svg>
