<?xml version="1.0" encoding="utf-8"?>
<!-- Generator: Adobe Illustrator 22.1.0, SVG Export Plug-In . SVG Version: 6.00 Build 0)  -->
<svg version="1.1" id="Layer_1" xmlns="http://www.w3.org/2000/svg" xmlns:xlink="http://www.w3.org/1999/xlink" x="0px" y="0px"
	 viewBox="0 0 792 1224" style="enable-background:new 0 0 792 1224;" xml:space="preserve">
<style type="text/css">
	.st0{fill:#FFFFFF;}
	.st1{fill:#537EEA;}
</style>
<g>
	<path class="st0" d="M303,725c-6,0-12,0-18,0c0-74.9,0-149.8,0-225c45.7,0,91.3,0,137,0c-1.6,2.3-4,4.5-4.5,7
		c-0.8,4.2-0.4,8.6-0.2,12.9c0.2,4.4,3.2,7.3,6.9,6.8c4-0.5,6.1-2.9,6-7.1c-0.1-3.6-0.2-7.3,0-10.9c0.3-3.8-1-6.7-4.3-8.7
		c28,0,55.9,0,83.9,0c0,75,0,150,0,225c-14.3,0-28.6,0-42.9,0c7.7-2.6,13.8-6.9,15.5-15.3c0.7-3.8,0.1-7.8,0.1-11.8
		c13.5-5.6,18-19.5,9-32.4c6.3-8.7,6.2-17.5-0.1-26.2c5.4-7.3,6.5-15.1,2-23c-4.6-8.1-12.2-10.2-20.9-9.8c-5,0.2-10,0-15,0
		c-6.3,0-12.6,0-18,0c1.3-12.7,3.4-24.9,3.7-37.1c0.6-18.8-10.5-29.4-29.2-29.4c-7.5,0-8.8,0.8-10.5,8.4c-3.3,14.7-8,28.8-17.8,40.7
		c-6.1,7.4-12.8,13.9-22.6,16.5c-4.8-10-13-12.9-23.2-12.6c-10.8,0.3-21.7,0-32.5,0.1c-6.6,0-8.7,2.1-8.7,8.6
		c0,38.2,0,76.3-0.1,114.5C298.7,720.1,299.9,722.9,303,725z M473,523.9c-1.6-1.9-2.8-4.5-4.7-5.2c-1.9-0.7-5.1-0.2-6.7,1.1
		c-3.5,2.7-6.5,6.1-9.6,9.3c-2.9,3-2.9,6.4,0,9.2c3,2.8,6.4,2.5,9.3-0.3c3-2.8,6-5.7,8.7-8.8C471.2,528,471.8,526.2,473,523.9z
		 M391.7,540.9c1.8-1.5,4.4-2.7,5.1-4.5c0.7-1.9,0.4-5.1-0.8-6.7c-2.6-3.5-6.1-6.5-9.3-9.6c-3-2.8-6.3-3.1-9.2-0.1
		c-2.9,2.9-2.7,6.3,0.1,9.3c2.9,3.1,6,6.2,9.2,9.1C387.8,539.3,389.5,539.8,391.7,540.9z"/>
	<path class="st1" d="M303,725c-3.1-2.1-4.3-4.9-4.3-8.8c0.1-38.2,0.1-76.3,0.1-114.5c0-6.4,2.2-8.6,8.7-8.6
		c10.8,0,21.7,0.2,32.5-0.1c10.2-0.3,18.4,2.6,23.2,12.6c9.8-2.6,16.5-9.1,22.6-16.5c9.8-11.9,14.5-26,17.8-40.7
		c1.7-7.6,3-8.4,10.5-8.4c18.8,0,29.8,10.6,29.2,29.4c-0.4,12.2-2.4,24.4-3.7,37.1c5.5,0,11.8,0,18,0c5,0,10,0.2,15,0
		c8.7-0.4,16.3,1.7,20.9,9.8c4.5,7.9,3.4,15.7-2,23c6.3,8.8,6.4,17.6,0.1,26.2c8.9,12.9,4.4,26.8-9,32.4c0,4,0.6,8-0.1,11.8
		c-1.6,8.4-7.8,12.8-15.5,15.3c-22,0-44,0-66,0c-12.7-3.6-25.5-7.1-38.6-10.8c-3,5.6-8.1,8.9-14.4,10.8C333,725,318,725,303,725z
		 M364.4,659.6c0,9.3,0,18.7,0,28c0,12.9-0.1,13.3,12.4,16.9c10,2.9,20.1,6.4,30.4,7.1c18.1,1.2,36.3,0.3,54.5,0.4
		c4.3,0,7.8-1.3,8.3-6c0.6-4.7-2.4-6.9-6.8-7.5c-4.1-0.6-6.4-2.9-6-7.1c0.4-4.3,3.4-5.7,7.4-5.7c4,0,8,0.2,12-0.1
		c3.9-0.3,6.6-2.3,6.6-6.6c0.1-4-2.6-6.6-7.1-6.7c-3.8-0.1-7.7-0.1-11.5,0c-4.3,0.1-7.1-1.6-7.5-6.1c-0.3-4,2.6-6.7,7.4-6.8
		c3.8-0.1,7.7,0.1,11.5-0.1c4.6-0.2,7.2-2.6,7.1-6.6c0-4-2.6-6.4-7.1-6.5c-3.8-0.1-7.7,0.1-11.5-0.1c-4.7-0.2-7.7-3-7.5-6.9
		c0.3-4.5,3.2-6.2,7.5-6.1c3.8,0.1,7.7,0.2,11.5,0c4.2-0.2,7-2.2,7.1-6.7c0-4.6-2.9-6.4-7-6.8c-1.3-0.1-2.7,0-4,0c-20,0-40,0-60,0
		c-5,0-7.9-2.4-7.9-6.3c0-3.8,2.9-6.3,7.9-6.5c3-0.1,6.1,0.3,9-0.2c1.6-0.2,3.7-1.6,4.2-2.9c4.2-12.2,6-24.9,5.3-37.8
		c-0.3-6-3.8-10.1-9.7-12c-3.1-1-4.8-0.8-6.1,3.2c-3,9.6-6,19.5-10.8,28.3c-8.3,15.4-19.4,28.2-37.3,33.4c-1.1,0.3-2.2,3-2.2,4.6
		C364.3,635.2,364.4,647.4,364.4,659.6z M312,711.9c10.3,0,20.1,0,29.9,0c7.4,0,9.5-2,9.5-9.4c0-14.6,0-29.3,0-43.9
		c0-14.5,0.1-29,0-43.4c0-6.7-2.4-8.9-9.1-8.9c-4.5,0-9,0-13.5,0c-5.6,0-11.2,0-16.8,0C312,641.8,312,676.5,312,711.9z"/>
	<path class="st1" d="M426,500c3.3,2,4.6,4.8,4.3,8.7c-0.2,3.6-0.1,7.3,0,10.9c0.1,4.2-2,6.6-6,7.1c-3.7,0.5-6.7-2.4-6.9-6.8
		c-0.2-4.3-0.6-8.7,0.2-12.9c0.5-2.5,2.9-4.7,4.5-7C423.3,500,424.7,500,426,500z"/>
	<path class="st0" d="M348,725c6.3-1.8,11.4-5.2,14.4-10.8c13.1,3.7,25.8,7.2,38.6,10.8C383.3,725,365.7,725,348,725z"/>
	<path class="st1" d="M473,523.9c-1.2,2.3-1.8,4.1-2.9,5.4c-2.8,3.1-5.7,6-8.7,8.8c-3,2.8-6.4,3.1-9.3,0.3c-3-2.8-2.9-6.2,0-9.2
		c3.1-3.2,6.1-6.7,9.6-9.3c1.7-1.2,4.8-1.7,6.7-1.1C470.2,519.4,471.4,522,473,523.9z"/>
	<path class="st1" d="M391.7,540.9c-2.2-1.1-3.9-1.6-5-2.7c-3.2-2.9-6.2-6-9.2-9.1c-2.8-3-3-6.3-0.1-9.3c2.9-3,6.3-2.7,9.2,0.1
		c3.2,3.1,6.7,6.1,9.3,9.6c1.2,1.6,1.6,4.8,0.8,6.7C396.1,538.2,393.5,539.4,391.7,540.9z"/>
	<path class="st0" d="M364.4,659.6c0-12.2-0.1-24.3,0.1-36.5c0-1.6,1.1-4.3,2.2-4.6c17.8-5.2,29-18,37.3-33.4
		c4.8-8.8,7.8-18.7,10.8-28.3c1.3-4,2.9-4.2,6.1-3.2c5.9,1.9,9.3,6,9.7,12c0.7,12.9-1.1,25.6-5.3,37.8c-0.5,1.3-2.6,2.7-4.2,2.9
		c-2.9,0.5-6,0.1-9,0.2c-5,0.1-7.9,2.6-7.9,6.5c0,3.9,2.9,6.3,7.9,6.3c20,0,40,0,60,0c1.3,0,2.7-0.1,4,0c4.1,0.4,7.1,2.2,7,6.8
		c0,4.5-2.9,6.5-7.1,6.7c-3.8,0.2-7.7,0.1-11.5,0c-4.3-0.1-7.1,1.6-7.5,6.1c-0.3,4,2.7,6.7,7.5,6.9c3.8,0.1,7.7,0,11.5,0.1
		c4.6,0.1,7.1,2.5,7.1,6.5c0,4-2.5,6.4-7.1,6.6c-3.8,0.1-7.7-0.1-11.5,0.1c-4.8,0.2-7.8,2.8-7.4,6.8c0.4,4.5,3.3,6.2,7.5,6.1
		c3.8,0,7.7-0.1,11.5,0c4.4,0.2,7.1,2.8,7.1,6.7c-0.1,4.3-2.7,6.4-6.6,6.6c-4,0.3-8,0.1-12,0.1c-4,0-7,1.5-7.4,5.7
		c-0.4,4.2,1.9,6.5,6,7.1c4.4,0.6,7.4,2.8,6.8,7.5c-0.5,4.7-4,6-8.3,6c-18.2-0.1-36.4,0.8-54.5-0.4c-10.2-0.7-20.4-4.2-30.4-7.1
		c-12.4-3.7-12.4-4-12.4-16.9C364.4,678.2,364.4,668.9,364.4,659.6z"/>
	<path class="st0" d="M312,711.9c0-35.4,0-70.2,0-105.7c5.7,0,11.3,0,16.8,0c4.5,0,9,0,13.5,0c6.7,0,9.1,2.2,9.1,8.9
		c0.1,14.5,0,29,0,43.4c0,14.6,0,29.3,0,43.9c0,7.4-2.1,9.4-9.5,9.4C332.1,712,322.3,711.9,312,711.9z M338,691.3
		c-0.4-3.1-2.4-5.3-6.3-5.5c-3.8-0.1-6.9,2.7-6.6,6.4c0.3,3.8,2.4,6.1,6.3,6.2C335.1,698.5,338,695.7,338,691.3z"/>
	<path class="st1" d="M338,691.3c0,4.4-2.9,7.3-6.6,7.1c-3.9-0.2-6-2.5-6.3-6.2c-0.3-3.6,2.8-6.5,6.6-6.4
		C335.7,685.9,337.6,688.1,338,691.3z"/>
</g>
</svg>
