<?xml version="1.0" encoding="utf-8"?>
<!-- Generator: Adobe Illustrator 22.1.0, SVG Export Plug-In . SVG Version: 6.00 Build 0)  -->
<svg version="1.1" id="Layer_1" xmlns="http://www.w3.org/2000/svg" xmlns:xlink="http://www.w3.org/1999/xlink" x="0px" y="0px"
	 viewBox="0 0 511.8 511.9" style="enable-background:new 0 0 511.8 511.9;" xml:space="preserve">
<style type="text/css">
	.st0{fill:#FFFFFF;}
</style>
<g>
	<path class="st0" d="M0,511.9C0,341.3,0,170.7,0,0c170.5,0,341.1,0,511.8,0c0,170.6,0,341.2,0,511.9
		C341.3,511.9,170.7,511.9,0,511.9z M487.6,467.5c-23.4-23.3-47-47-70.7-70.6c-23.8-23.7-47.6-47.4-71.3-71.1
		c65.8-78.1,53.8-188.9-16.4-252c-68.8-61.9-172.4-61.9-242,0.1C19.6,134,7.7,237.6,60.1,311.7c27,38.2,63.4,63,109.1,72.8
		c58,12.4,110.1-1.5,156.7-39.1c47.5,47.5,94.8,94.9,141.8,142C474.2,481,480.7,474.6,487.6,467.5z"/>
	<path d="M487.6,467.5c-7,7-13.4,13.5-19.8,20c-47.1-47.1-94.4-94.5-141.8-142c-46.6,37.5-98.7,51.5-156.7,39.1
		c-45.7-9.8-82.1-34.7-109.1-72.8C7.7,237.6,19.6,134,87.1,73.8c69.6-62,173.2-62,242-0.1c70.2,63.1,82.2,173.9,16.4,252
		c23.7,23.7,47.5,47.4,71.3,71.1C440.6,420.5,464.3,444.2,487.6,467.5z M208.8,46.4c-88.9-0.2-161.4,71.4-162.4,160.9
		c-0.9,87.1,70.9,161,158.2,162.6c89.4,1.6,162.9-68.7,165.1-156.4C371.9,120.7,301,47.8,208.8,46.4z"/>
	<path class="st0" d="M208.8,46.4c92.2,1.4,163.2,74.3,160.9,167.1c-2.1,87.7-75.6,158-165.1,156.4
		c-87.4-1.6-159.2-75.5-158.2-162.6C47.3,117.8,119.8,46.2,208.8,46.4z"/>
</g>
</svg>
