<svg id="Layer_1" data-name="Layer 1" xmlns="http://www.w3.org/2000/svg" viewBox="0 0 324 324"><defs><style>.cls-1{fill:#fff;}</style></defs><title>profile_icon</title><path d="M609,555.08v17.28c-.65,4.17-1.35,8.33-2,12.51C597.19,652.8,547.73,706.1,480.9,720.56c-8.58,1.85-17.31,3-26,4.44H439.08l-18.25-3a160.08,160.08,0,0,1-131.3-124.51c-1.78-8.33-3-16.76-4.53-25.15V553.64c.65-4.17,1.35-8.33,2-12.51,9.6-66.28,56.82-118.68,121.91-134.84,9.9-2.46,20.13-3.56,30.21-5.29h15.84c6.08,1,12.15,2.05,18.24,3,64.12,9.9,117.25,59.64,131.08,123C606.26,536.24,607.43,545.7,609,555.08ZM347,643.63c33.65,52.52,167.76,52.67,199.56.67-4.09-1.54-8-3.16-12.06-4.52-8.83-3-17.88-5.37-26.5-8.84-12.43-5-22.09-13.23-27.05-26.21-1.43-3.74-1.29-6.26,1.91-9.43,5.23-5.18,10.51-10.78,14-17.16,7.83-14.18,15-28.75,21.48-43.6,1.86-4.29.84-10.14.12-15.14-.65-4.57-2.7-8.94-4.09-13.42-3-9.52-4.68-19.67-9.09-28.47-17.86-35.64-58.87-47.67-90.37-26.81-20.23,13.4-30.42,33.17-33.83,56.8-.33,2.3-.13,5.41-1.52,6.72-9.34,8.82-6.57,18.21-1.54,27.49,6.36,11.73,13,23.3,19.91,34.73a101.21,101.21,0,0,0,10.24,13.82c7.57,8.76,8.37,9.93,2.05,19.58a56.16,56.16,0,0,1-15.16,15.85c-6.63,4.4-14.62,6.88-22.21,9.65C364.5,638.4,355.85,640.84,347,643.63Z" transform="translate(-285 -401)"/><path class="cls-1" d="M609,555.08c-1.57-9.38-2.74-18.84-4.76-28.12-13.83-63.33-67-113.07-131.08-123-6.09-.94-12.16-2-18.24-3H609Z" transform="translate(-285 -401)"/><path class="cls-1" d="M439.08,401c-10.08,1.73-20.31,2.83-30.21,5.29C343.78,422.45,296.56,474.85,287,541.13c-.61,4.18-1.31,8.34-2,12.51V401Z" transform="translate(-285 -401)"/><path class="cls-1" d="M285,572.36c1.5,8.39,2.75,16.82,4.53,25.15A160.08,160.08,0,0,0,420.83,722l18.25,3H285Z" transform="translate(-285 -401)"/><path class="cls-1" d="M454.92,725c8.67-1.46,17.4-2.59,26-4.44C547.73,706.1,597.19,652.8,607,584.87c.61-4.18,1.31-8.34,2-12.51V725Z" transform="translate(-285 -401)"/><path class="cls-1" d="M347,643.63c8.81-2.79,17.46-5.23,25.88-8.29,7.59-2.77,15.58-5.25,22.21-9.65a56.16,56.16,0,0,0,15.16-15.85c6.32-9.65,5.52-10.82-2.05-19.58A101.21,101.21,0,0,1,398,576.44c-6.88-11.43-13.55-23-19.91-34.73-5-9.28-7.8-18.67,1.54-27.49,1.39-1.31,1.19-4.42,1.52-6.72,3.41-23.63,13.6-43.4,33.83-56.8,31.5-20.86,72.51-8.83,90.37,26.81,4.41,8.8,6.12,18.95,9.09,28.47,1.39,4.48,3.44,8.85,4.09,13.42.72,5,1.74,10.85-.12,15.14-6.45,14.85-13.65,29.42-21.48,43.6-3.52,6.38-8.8,12-14,17.16-3.2,3.17-3.34,5.69-1.91,9.43,5,13,14.62,21.21,27.05,26.21,8.62,3.47,17.67,5.86,26.5,8.84,4,1.36,8,3,12.06,4.52C514.8,696.3,380.69,696.15,347,643.63Z" transform="translate(-285 -401)"/></svg>